<svg width="70" height="69" viewBox="0 0 70 69" fill="none" xmlns="http://www.w3.org/2000/svg">
<g clip-path="url(#clip0_277_6137)">
<mask id="mask0_277_6137" style="mask-type:luminance" maskUnits="userSpaceOnUse" x="0" y="0" width="70" height="69">
<path d="M69.657 0H0V68.7282H69.657V0Z" fill="white"/>
</mask>
<g mask="url(#mask0_277_6137)">
<path d="M62.2476 13.4898L59.3881 14.1311C56.5916 10.7682 53.0881 7.97682 49.1821 6.01833C44.7091 3.76712 39.8791 2.62758 34.8286 2.62758C29.7781 2.62758 24.9481 3.76712 20.4751 6.01833C16.5726 7.97682 13.0691 10.7682 10.2761 14.1276L7.41309 13.4864C10.5666 9.38818 14.6721 5.99742 19.2886 3.67652C24.1326 1.23712 29.3581 0 34.8286 0C40.2991 0 45.5246 1.23712 50.3721 3.67652C54.9886 5.99394 59.0976 9.38818 62.2476 13.4898Z" fill="#FFFCF4"/>
<path d="M62.2476 55.2384L59.3881 54.5972C56.5916 57.96 53.0881 60.7514 49.1821 62.7099C44.7091 64.9611 39.8791 66.1006 34.8286 66.1006C29.7781 66.1006 24.9481 64.9611 20.4751 62.7099C16.5726 60.7514 13.0691 57.96 10.2761 54.6007L7.41309 55.2419C10.5666 59.34 14.6721 62.7308 19.2886 65.0517C24.1326 67.4876 29.3616 68.7282 34.8286 68.7282C40.2956 68.7282 45.5246 67.4911 50.3721 65.0517C54.9886 62.7343 59.0976 59.34 62.2476 55.2384Z" fill="#FFFCF4"/>
<path d="M13.1004 42.9925C11.1334 43.6198 9.39041 43.9335 7.87491 43.9335C4.92091 43.9335 3.44392 42.6406 3.44392 40.0513V27.6836C3.44392 26.3524 3.87441 25.3662 4.73191 24.725C5.59291 24.0838 6.62541 23.7632 7.83991 23.7632C9.22591 23.7632 10.5279 23.9897 11.7389 24.4392L12.7259 21.498C11.1334 20.6686 9.35541 20.2539 7.38841 20.2539C5.77491 20.2539 4.40991 20.571 3.30042 21.1983C2.18742 21.8778 1.36142 22.7072 0.818918 23.69C0.276418 24.6692 0.00341797 26.1154 0.00341797 28.0251V40.128C0.00341797 42.665 0.685918 44.5154 2.05092 45.6689C3.41242 46.8259 5.19391 47.4009 7.38841 47.4009C9.33441 47.4009 11.4274 46.9862 13.6744 46.1568L13.1039 42.9925H13.1004Z" fill="#FFFCF4"/>
<path d="M22.5748 27.8335C21.2623 27.8335 20.0653 28.1227 18.9803 28.7012L18.7458 27.816L15.5713 28.4468V47.4392H19.0153V33.9807C19.0153 33.0782 19.3758 32.3673 20.0933 31.8515C20.8143 31.3357 21.6893 31.0779 22.7253 31.0779C23.5058 31.0779 24.2373 31.2277 24.9198 31.5274L25.7528 28.2482C24.5418 27.9694 23.4813 27.8335 22.5713 27.8335H22.5748Z" fill="#FFFCF4"/>
<path d="M38.6819 31.719C38.4194 30.6631 37.7124 29.7501 36.5609 28.9834C35.4689 28.2516 33.7959 27.8718 31.5419 27.8369C31.4474 28.1959 30.9364 30.5446 30.9364 30.5446C32.4519 30.5446 33.6104 30.806 34.4224 31.3357C35.2309 31.8654 35.6369 32.3602 35.6369 33.4127C35.0034 33.0119 34.1704 32.6599 33.1379 32.3602C32.1019 32.0571 31.0799 31.9072 30.0684 31.9072C28.9344 31.9072 27.9474 32.1059 27.1144 32.5101C25.3749 33.3674 24.5034 35.0366 24.5034 37.5248V40.6542C24.5034 43.219 25.2839 44.9928 26.8484 45.9686C28.4164 46.9513 30.5199 47.4392 33.1729 47.4392C34.3874 47.4392 36.3544 47.3033 39.0809 47.0245V35.7893C39.0809 34.1305 38.9479 32.7749 38.6819 31.719ZM35.6334 44.0484C34.6464 44.1983 33.7504 44.2715 32.9419 44.2715C29.6099 44.2715 27.9439 42.9786 27.9439 40.3893V37.8977C27.9439 36.2145 28.8399 35.3746 30.6319 35.3746C31.4404 35.3746 32.3119 35.5245 33.2429 35.8242C34.1774 36.1239 34.9719 36.4654 35.6299 36.8452V44.0449L35.6334 44.0484Z" fill="#FFFCF4"/>
<path d="M51.548 28.2377L47.5125 41.8147L43.477 28.2377L39.6445 27.823L45.752 47.4148H47.5125H49.2765L55.384 27.823L51.548 28.2377Z" fill="#FFFCF4"/>
<path d="M66.2481 20.6303V28.5513C65.7966 28.3248 65.2436 28.1436 64.5996 28.0042C63.9591 27.8648 63.2801 27.7951 62.5731 27.7951C61.2116 27.7951 59.9831 28.0495 58.9016 28.5513C56.7561 29.534 55.6851 31.3392 55.6851 33.9807V41.1072C55.6851 42.3862 55.9476 43.47 56.4796 44.3481C57.0116 45.2298 57.7291 45.8919 58.6391 46.3484C59.4441 46.7492 60.2596 47.0384 61.0821 47.2127C61.9046 47.3869 62.7796 47.4775 63.7141 47.4775C64.6486 47.4775 65.9366 47.3869 67.5781 47.2127L69.6606 47.0245V20.2609L66.2516 20.6303H66.2481ZM66.2481 44.0101C65.2891 44.2122 64.4316 44.3098 63.6756 44.3098C62.3141 44.3098 61.2081 44.0519 60.3611 43.5362C59.5141 43.0204 59.0906 42.2747 59.0906 41.2919V34.9948C59.0906 33.688 59.4441 32.7331 60.1511 32.1303C60.8581 31.5239 61.7646 31.2242 62.8776 31.2242C64.0921 31.2242 65.2156 31.503 66.2481 32.0536V44.0066V44.0101Z" fill="#FFFCF4"/>
</g>
</g>
<defs>
<clipPath id="clip0_277_6137">
<rect width="70" height="69" fill="white"/>
</clipPath>
</defs>
</svg>
