<svg width="25" height="24" viewBox="0 0 25 24" fill="none" xmlns="http://www.w3.org/2000/svg">
<path d="M4 15.0701H21C21.28 15.0701 21.5 15.2901 21.5 15.5701V17.0701C21.5 18.1701 20.6 19.0701 19.5 19.0701H5.5C4.4 19.0701 3.5 18.1701 3.5 17.0701V15.5701C3.5 15.2901 3.72 15.0701 4 15.0701Z" stroke="#CC3E33" stroke-width="2" stroke-miterlimit="10"/>
<path d="M4.56004 16.0701C4.54004 15.9101 4.54004 15.7501 4.54004 15.5901C4.54004 11.8001 7.17004 8.63009 10.71 7.80009C11.3 7.66009 11.91 7.59009 12.54 7.59009C13.17 7.59009 13.78 7.66009 14.37 7.80009C17.91 8.63009 20.54 11.8001 20.54 15.5901C20.54 15.7501 20.54 15.9101 20.52 16.0701" stroke="#CC3E33" stroke-width="2" stroke-miterlimit="10"/>
<path d="M14.37 7.8C14.48 7.55 14.54 7.28 14.54 7C14.54 5.9 13.64 5 12.54 5C11.44 5 10.54 5.9 10.54 7C10.54 7.28 10.6 7.55 10.71 7.8" stroke="#CC3E33" stroke-width="2" stroke-miterlimit="10"/>
</svg>
