<svg width="128" height="128" viewBox="0 0 128 128" fill="none" xmlns="http://www.w3.org/2000/svg">
<g clip-path="url(#clip0_159_12560)">
<path d="M110.13 66.39C110.29 60.73 110.47 54.69 110.67 48.65C110.87 42.67 111.08 36.69 111.32 31.09C111.42 28.7 111.05 23.88 114.19 23.5C117.77 23.07 118.64 28.17 119.07 30.69C120.37 38.29 121.5 45.91 122.66 53.53C123.85 61.31 125.04 69.1 126.14 76.89C126.35 78.4 126.64 79.92 126.3 81.44C125.71 84.07 123.82 86.12 122.14 88.12C119.61 91.12 116.92 94.93 116.74 99.04C111.52 97.8 106.31 96.56 101.09 95.32C95.6397 94.02 90.1897 92.73 84.7397 91.43C84.7397 91.43 84.7297 91.43 84.7197 91.43C84.7697 91.02 84.8097 90.62 84.8797 90.22C85.7297 85.58 87.7897 81.11 90.5697 77.32C92.6997 74.41 95.2397 71.72 98.1497 69.57C100.36 67.94 102.9 66.42 105.64 65.95C107.47 65.63 109.53 65.73 111.01 66.99C112.35 68.13 112.8 69.56 111.59 70.95C110.18 72.58 108.24 73.74 106.58 75.08C104.53 76.74 102.65 78.59 101.31 80.88" fill="#FFEEC0"/>
<path d="M110.13 66.39C110.29 60.73 110.47 54.69 110.67 48.65C110.87 42.67 111.08 36.69 111.32 31.09C111.42 28.7 111.05 23.88 114.19 23.5C117.77 23.07 118.64 28.17 119.07 30.69C120.37 38.29 121.5 45.91 122.66 53.53C123.85 61.31 125.04 69.1 126.14 76.89C126.35 78.4 126.64 79.92 126.3 81.44C125.71 84.07 123.82 86.12 122.14 88.12C119.61 91.12 116.92 94.93 116.74 99.04C111.52 97.8 106.31 96.56 101.09 95.32C95.6397 94.02 90.1897 92.73 84.7397 91.43C84.7397 91.43 84.7297 91.43 84.7197 91.43C84.7697 91.02 84.8097 90.62 84.8797 90.22C85.7297 85.58 87.7897 81.11 90.5697 77.32C92.6997 74.41 95.2397 71.72 98.1497 69.57C100.36 67.94 102.9 66.42 105.64 65.95C107.47 65.63 109.53 65.73 111.01 66.99C112.35 68.13 112.8 69.56 111.59 70.95C110.18 72.58 108.24 73.74 106.58 75.08C104.53 76.74 102.65 78.59 101.31 80.88" stroke="#882922" stroke-width="3" stroke-linecap="round" stroke-linejoin="round"/>
<path d="M119.389 99.2228L80.8926 90.5119L79.1866 98.0513L117.683 106.762L119.389 99.2228Z" fill="#CC3E33" stroke="#882922" stroke-width="3" stroke-linecap="round" stroke-linejoin="round"/>
<path d="M111.86 126.48L116.55 106.5L80.3298 98.3V98.31L73.7998 126.48H111.86Z" fill="#DD7E77" stroke="#882922" stroke-width="3" stroke-linecap="round" stroke-linejoin="round"/>
<path d="M17.88 66.39C17.72 60.73 17.54 54.69 17.34 48.65C17.14 42.67 16.93 36.69 16.69 31.09C16.59 28.7 16.96 23.88 13.82 23.5C10.24 23.07 9.37001 28.17 8.94001 30.69C7.64001 38.29 6.51001 45.91 5.35001 53.53C4.16001 61.31 2.97001 69.1 1.87001 76.89C1.66001 78.4 1.37001 79.92 1.71001 81.44C2.30001 84.07 4.19001 86.12 5.87001 88.12C8.40001 91.12 11.09 94.93 11.27 99.04C16.49 97.8 21.7 96.56 26.92 95.32C32.37 94.02 37.82 92.73 43.27 91.43C43.27 91.43 43.28 91.43 43.29 91.43C43.24 91.02 43.2 90.62 43.13 90.22C42.28 85.58 40.22 81.11 37.44 77.32C35.31 74.41 32.77 71.72 29.86 69.57C27.65 67.94 25.11 66.42 22.37 65.95C20.54 65.63 18.48 65.73 17 66.99C15.66 68.13 15.21 69.56 16.42 70.95C17.83 72.58 19.77 73.74 21.43 75.08C23.48 76.74 25.36 78.59 26.7 80.88" fill="#FFEEC0"/>
<path d="M17.88 66.39C17.72 60.73 17.54 54.69 17.34 48.65C17.14 42.67 16.93 36.69 16.69 31.09C16.59 28.7 16.96 23.88 13.82 23.5C10.24 23.07 9.37001 28.17 8.94001 30.69C7.64001 38.29 6.51001 45.91 5.35001 53.53C4.16001 61.31 2.97001 69.1 1.87001 76.89C1.66001 78.4 1.37001 79.92 1.71001 81.44C2.30001 84.07 4.19001 86.12 5.87001 88.12C8.40001 91.12 11.09 94.93 11.27 99.04C16.49 97.8 21.7 96.56 26.92 95.32C32.37 94.02 37.82 92.73 43.27 91.43C43.27 91.43 43.28 91.43 43.29 91.43C43.24 91.02 43.2 90.62 43.13 90.22C42.28 85.58 40.22 81.11 37.44 77.32C35.31 74.41 32.77 71.72 29.86 69.57C27.65 67.94 25.11 66.42 22.37 65.95C20.54 65.63 18.48 65.73 17 66.99C15.66 68.13 15.21 69.56 16.42 70.95C17.83 72.58 19.77 73.74 21.43 75.08C23.48 76.74 25.36 78.59 26.7 80.88" stroke="#882922" stroke-width="3" stroke-linecap="round" stroke-linejoin="round"/>
<path d="M10.3089 106.76L48.8057 98.0487L47.0997 90.5093L8.60291 99.2202L10.3089 106.76Z" fill="#CC3E33" stroke="#882922" stroke-width="3" stroke-linecap="round" stroke-linejoin="round"/>
<path d="M54.21 126.48L47.68 98.31V98.3L11.46 106.5L16.15 126.48H54.21Z" fill="#DD7E77" stroke="#882922" stroke-width="3" stroke-linecap="round" stroke-linejoin="round"/>
<path d="M63.9999 71.96C59.1599 68.73 54.4999 65.21 50.0799 61.43C35.1499 49.21 26.9199 39.78 25.6699 33.57C24.9399 31.1 24.5999 28.54 24.6399 25.98C24.6399 12.48 34.9399 1.51 47.4999 1.51H47.9499C54.0599 1.6 59.8399 4.15 63.9899 8.5C68.1499 4.15 73.9199 1.6 80.0299 1.51H80.4799C93.0399 1.51 103.34 12.49 103.34 25.98C103.38 28.54 103.04 31.1 102.31 33.57C101.07 39.78 92.8399 49.22 77.8999 61.43C73.4799 65.2 68.8199 68.72 63.9799 71.96H63.9999Z" fill="#FFCB44" stroke="#882922" stroke-width="3" stroke-linecap="round" stroke-linejoin="round"/>
<path d="M80.96 12.43C84.4 12.63 87.61 14.19 89.9 16.77C92.18 19.34 93.35 22.72 93.15 26.16C93.18 27.63 92.99 29.1 92.57 30.52L92.36 31.34" fill="#FFCB44"/>
<path d="M80.96 12.43C84.4 12.63 87.61 14.19 89.9 16.77C92.18 19.34 93.35 22.72 93.15 26.16C93.18 27.63 92.99 29.1 92.57 30.52L92.36 31.34" stroke="#882922" stroke-width="3" stroke-linecap="round" stroke-linejoin="round"/>
</g>
<defs>
<clipPath id="clip0_159_12560">
<rect width="128" height="128" fill="white"/>
</clipPath>
</defs>
</svg>
