<svg width="128" height="128" viewBox="0 0 128 128" fill="none" xmlns="http://www.w3.org/2000/svg">
<g clip-path="url(#clip0_159_12550)">
<path d="M68.4001 16.34H24.1201V28.22H68.4001V16.34Z" fill="#FFCB44" stroke="#882922" stroke-width="3" stroke-miterlimit="10"/>
<path d="M68.41 22.86V41.33H23.29V22.86" fill="#FFCB44"/>
<path d="M68.41 22.86V41.33H23.29V22.86" stroke="#882922" stroke-width="3" stroke-miterlimit="10"/>
<path d="M25.3096 58.81V49.6H66.5096V58.81C66.5096 63.57 61.9696 70.44 55.7596 74.41C52.6696 76.09 49.5096 77.59 45.9096 77.59C42.3496 77.59 39.1096 76.13 36.0796 74.42C29.8696 70.44 25.3196 63.57 25.3196 58.81H25.3096Z" fill="#FFEEC0" stroke="#882922" stroke-width="3" stroke-miterlimit="10"/>
<path d="M68.6302 41.33H23.2002C22.6479 41.33 22.2002 41.7777 22.2002 42.33V48.62C22.2002 49.1723 22.6479 49.62 23.2002 49.62H68.6302C69.1825 49.62 69.6302 49.1723 69.6302 48.62V42.33C69.6302 41.7777 69.1825 41.33 68.6302 41.33Z" fill="#CC3E33" stroke="#882922" stroke-width="3" stroke-miterlimit="10"/>
<path d="M31.8899 79.51C33.9399 84.87 39.1299 88.67 45.1899 88.67H46.6099C52.6899 88.67 57.8699 84.87 59.9299 79.51H66.7699C79.6999 79.51 90.2099 90.03 90.2099 102.95V126.39H1.62988V102.95C1.62988 90.01 12.1199 79.51 25.0699 79.51H31.8899Z" fill="#DD7E77" stroke="#882922" stroke-width="3" stroke-linecap="round" stroke-linejoin="round"/>
<path d="M18.7695 124.99V113.23" stroke="#882922" stroke-width="3" stroke-linecap="round" stroke-linejoin="round"/>
<path d="M60.88 124.88V100.95C60.88 99.89 60.39 98.89 59.54 98.24L37.25 86.24" stroke="#882922" stroke-width="3" stroke-miterlimit="10"/>
<path d="M19.6496 49.87C19.6496 49.73 19.7696 49.6 19.8996 49.6H25.2996V59.24H21.8596C20.6496 59.24 19.6396 58.22 19.6396 57.01V49.87H19.6496Z" fill="#FFEEC0" stroke="#882922" stroke-width="3" stroke-miterlimit="10"/>
<path d="M72.1698 57.01C72.1698 58.22 71.1598 59.24 69.9498 59.24H66.5098V49.6H71.9098C72.0398 49.6 72.1598 49.73 72.1598 49.87V57.01H72.1698Z" fill="#FFEEC0" stroke="#882922" stroke-width="3" stroke-miterlimit="10"/>
<path d="M119.73 92.32H71.54V99.03H119.73V92.32Z" fill="#CC3E33" stroke="#882922" stroke-width="3" stroke-miterlimit="10"/>
<path d="M111.5 126.39H79.7603C75.2203 126.39 71.5403 122.71 71.5303 118.17V99.03H119.72V118.17C119.71 122.71 116.03 126.38 111.49 126.39H111.5Z" fill="#CC3E33" stroke="#882922" stroke-width="3" stroke-miterlimit="10"/>
<path d="M126.37 94.91C126.37 98.84 123.58 102.22 119.73 102.98V92.91C119.73 91.9 120.55 91.07 121.57 91.07H125.63C125.83 91.07 126.02 91.15 126.16 91.29C126.3 91.43 126.38 91.62 126.38 91.82V94.91H126.37Z" fill="#FFCB44" stroke="#882922" stroke-width="3" stroke-miterlimit="10"/>
<path d="M64.9004 91.83C64.9004 91.63 64.9804 91.44 65.1204 91.3C65.2604 91.16 65.4504 91.08 65.6504 91.08H69.7104C70.7204 91.08 71.5504 91.91 71.5504 92.92V102.99C67.7004 102.23 64.9204 98.85 64.9104 94.92V91.83H64.9004Z" fill="#FFCB44" stroke="#882922" stroke-width="3" stroke-miterlimit="10"/>
<path d="M103.62 70.33L104.03 71.1C104.49 71.96 104.49 72.99 104.05 73.85L103.62 74.67L103.27 75.33C102.77 76.28 102.77 77.41 103.27 78.35L103.62 79.01" stroke="#882922" stroke-width="3" stroke-linecap="round" stroke-linejoin="round"/>
<path d="M95.6098 68.05L96.0198 68.82C96.4798 69.68 96.4798 70.71 96.0398 71.57L95.6098 72.39L95.2598 73.05C94.7598 74 94.7598 75.13 95.2598 76.07L95.6098 76.73" stroke="#882922" stroke-width="3" stroke-linecap="round" stroke-linejoin="round"/>
<path d="M87.6 70.33L88.01 71.1C88.47 71.96 88.47 72.99 88.03 73.85L87.6 74.67L87.25 75.33C86.75 76.28 86.75 77.41 87.25 78.35L87.6 79.01" stroke="#882922" stroke-width="3" stroke-linecap="round" stroke-linejoin="round"/>
<path d="M31.8996 20.5C31.7696 20.55 31.6396 20.61 31.5096 20.69C28.9696 22.26 26.0496 23.01 23.0596 22.86C19.7796 21.69 17.6596 18.49 17.9096 14.98C18.1796 11.09 21.3096 7.98997 25.2096 7.75997C26.7196 7.66997 28.1996 8.01997 29.4996 8.74997C31.2096 9.71997 33.3396 9.23997 34.4496 7.63997C37.0396 3.89997 41.3096 1.65997 45.8496 1.65997C50.3896 1.65997 54.6496 3.88997 57.2496 7.63997C58.3596 9.23997 60.4896 9.71997 62.1996 8.74997C63.4996 8.01997 64.9896 7.66997 66.4896 7.75997C70.3796 7.98997 73.5196 11.09 73.7896 14.98C74.0296 18.49 71.9196 21.69 68.6396 22.86C65.6496 23.01 62.7396 22.26 60.1896 20.69C60.0696 20.61 59.9396 20.55 59.7996 20.5" fill="#FFCB44"/>
<path d="M31.8996 20.5C31.7696 20.55 31.6396 20.61 31.5096 20.69C28.9696 22.26 26.0496 23.01 23.0596 22.86C19.7796 21.69 17.6596 18.49 17.9096 14.98C18.1796 11.09 21.3096 7.98997 25.2096 7.75997C26.7196 7.66997 28.1996 8.01997 29.4996 8.74997C31.2096 9.71997 33.3396 9.23997 34.4496 7.63997C37.0396 3.89997 41.3096 1.65997 45.8496 1.65997C50.3896 1.65997 54.6496 3.88997 57.2496 7.63997C58.3596 9.23997 60.4896 9.71997 62.1996 8.74997C63.4996 8.01997 64.9896 7.66997 66.4896 7.75997C70.3796 7.98997 73.5196 11.09 73.7896 14.98C74.0296 18.49 71.9196 21.69 68.6396 22.86C65.6496 23.01 62.7396 22.26 60.1896 20.69C60.0696 20.61 59.9396 20.55 59.7996 20.5" stroke="#882922" stroke-width="3" stroke-linecap="round" stroke-linejoin="round"/>
</g>
<defs>
<clipPath id="clip0_159_12550">
<rect width="128" height="128" fill="white"/>
</clipPath>
</defs>
</svg>
