<svg width="128" height="129" viewBox="0 0 128 129" fill="none" xmlns="http://www.w3.org/2000/svg">
<g clip-path="url(#clip0_20_1475)">
<path d="M64 118.482C93.5583 118.482 117.52 94.5202 117.52 64.9619C117.52 35.4036 93.5583 11.4419 64 11.4419C34.4417 11.4419 10.48 35.4036 10.48 64.9619C10.48 94.5202 34.4417 118.482 64 118.482Z" fill="#DD7E77" stroke="#882922" stroke-width="3" stroke-linecap="round" stroke-linejoin="round"/>
<path d="M64 18.0719C67.6616 18.0719 70.63 15.1036 70.63 11.4419C70.63 7.78027 67.6616 4.81192 64 4.81192C60.3383 4.81192 57.37 7.78027 57.37 11.4419C57.37 15.1036 60.3383 18.0719 64 18.0719Z" fill="#FFEEC0" stroke="#882922" stroke-width="3" stroke-linecap="round" stroke-linejoin="round"/>
<path d="M10.44 71.6319C14.1016 71.6319 17.07 68.6636 17.07 65.0019C17.07 61.3403 14.1016 58.3719 10.44 58.3719C6.77835 58.3719 3.81 61.3403 3.81 65.0019C3.81 68.6636 6.77835 71.6319 10.44 71.6319Z" fill="#FFEEC0" stroke="#882922" stroke-width="3" stroke-linecap="round" stroke-linejoin="round"/>
<path d="M64 125.192C67.6616 125.192 70.63 122.224 70.63 118.562C70.63 114.9 67.6616 111.932 64 111.932C60.3383 111.932 57.37 114.9 57.37 118.562C57.37 122.224 60.3383 125.192 64 125.192Z" fill="#FFEEC0" stroke="#882922" stroke-width="3" stroke-linecap="round" stroke-linejoin="round"/>
<path d="M117.56 71.6319C121.222 71.6319 124.19 68.6636 124.19 65.0019C124.19 61.3403 121.222 58.3719 117.56 58.3719C113.898 58.3719 110.93 61.3403 110.93 65.0019C110.93 68.6636 113.898 71.6319 117.56 71.6319Z" fill="#FFEEC0" stroke="#882922" stroke-width="3" stroke-linecap="round" stroke-linejoin="round"/>
<path d="M64 2.51192C29.51 2.51192 1.55 30.4719 1.55 64.9619C1.55 99.4519 29.51 127.412 64 127.412C98.49 127.412 126.45 99.4519 126.45 64.9619C126.45 30.4719 98.49 2.51192 64 2.51192ZM64 118.482C34.44 118.482 10.48 94.5219 10.48 64.9619C10.48 35.4019 34.44 11.4419 64 11.4419C93.56 11.4419 117.52 35.4019 117.52 64.9619C117.52 94.5219 93.56 118.482 64 118.482Z" fill="#CC3E33" stroke="#882922" stroke-width="3" stroke-linecap="round" stroke-linejoin="round"/>
<path d="M58.51 53.2019L53.54 54.4319L53.5 54.4419L53.49 54.4919L46.79 82.3319L46.83 82.3719L69.49 76.7119L74.47 75.4719L74.51 75.4619L74.52 75.4119L81.21 47.5819L81.18 47.5519L58.51 53.2019Z" fill="#FFCB44" stroke="#882922" stroke-width="3" stroke-linecap="round" stroke-linejoin="round"/>
</g>
<defs>
<clipPath id="clip0_20_1475">
<rect width="128" height="128" fill="white" transform="translate(0 0.961914)"/>
</clipPath>
</defs>
</svg>
