<svg width="128" height="128" viewBox="0 0 128 128" fill="none" xmlns="http://www.w3.org/2000/svg">
<g clip-path="url(#clip0_215_4463)">
<path d="M104.5 32.15H9.5C5.08172 32.15 1.5 35.7317 1.5 40.15V60.15C1.5 64.5683 5.08172 68.15 9.5 68.15H104.5C108.918 68.15 112.5 64.5683 112.5 60.15V40.15C112.5 35.7317 108.918 32.15 104.5 32.15Z" fill="#CC3E33" stroke="#882922" stroke-width="3" stroke-linecap="round" stroke-linejoin="round"/>
<path d="M64.0002 60.73C80.3423 60.73 93.5902 47.4821 93.5902 31.14C93.5902 14.7979 80.3423 1.54999 64.0002 1.54999C47.6581 1.54999 34.4102 14.7979 34.4102 31.14C34.4102 47.4821 47.6581 60.73 64.0002 60.73Z" fill="#FFCB44" stroke="#882922" stroke-width="3" stroke-linecap="round" stroke-linejoin="round"/>
<path fill-rule="evenodd" clip-rule="evenodd" d="M65.4705 17.02C65.4705 16.21 64.8105 15.55 64.0005 15.55C63.1905 15.55 62.5305 16.21 62.5305 17.02V19.42H60.3305C58.5805 19.42 56.9005 20.11 55.6705 21.35C54.4305 22.59 53.7405 24.26 53.7405 26.01C53.7405 27.76 54.4405 29.44 55.6705 30.67C56.9105 31.91 58.5805 32.6 60.3305 32.6H62.5305V39.93H55.2005C54.3905 39.93 53.7305 40.59 53.7305 41.4C53.7305 42.21 54.3905 42.86 55.2005 42.86H62.5305V45.26C62.5305 46.07 63.1905 46.73 64.0005 46.73C64.8105 46.73 65.4705 46.07 65.4705 45.26V42.86H67.6705C69.4205 42.86 71.1005 42.17 72.3305 40.93C73.5705 39.69 74.2605 38.02 74.2605 36.27C74.2605 34.52 73.5605 32.84 72.3305 31.61C71.0905 30.37 69.4205 29.68 67.6705 29.68H65.4705V22.35H71.3305C72.1405 22.35 72.8005 21.69 72.8005 20.88C72.8005 20.07 72.1405 19.42 71.3305 19.42H65.4705V17.02ZM62.5305 22.35H60.3305C59.3605 22.35 58.4305 22.74 57.7405 23.42C57.0505 24.11 56.6705 25.04 56.6705 26.01C56.6705 26.98 57.0605 27.91 57.7405 28.6C58.4305 29.29 59.3605 29.67 60.3305 29.67H62.5305V22.34V22.35ZM65.4705 32.61V39.94H67.6705C68.6405 39.94 69.5705 39.55 70.2605 38.87C70.9505 38.19 71.3305 37.25 71.3305 36.28C71.3305 35.31 70.9405 34.38 70.2605 33.69C69.5805 33 68.6405 32.62 67.6705 32.62H65.4705V32.61Z" fill="#882922"/>
<path d="M112.5 48.44H9.5C5.08172 48.44 1.5 52.0217 1.5 56.44V118.44C1.5 122.858 5.08172 126.44 9.5 126.44H112.5C116.918 126.44 120.5 122.858 120.5 118.44V56.44C120.5 52.0217 116.918 48.44 112.5 48.44Z" fill="#DD7E77" stroke="#882922" stroke-width="3" stroke-linecap="round" stroke-linejoin="round"/>
<path fill-rule="evenodd" clip-rule="evenodd" d="M17.33 48.44H9.5C5.08 48.44 1.5 44.86 1.5 40.44V62.92" fill="#DD7E77"/>
<path d="M17.33 48.44H9.5C5.08 48.44 1.5 44.86 1.5 40.44V62.92" stroke="#882922" stroke-width="3" stroke-linecap="round" stroke-linejoin="round"/>
<path d="M118.5 73.07H90.1504C85.7321 73.07 82.1504 76.6517 82.1504 81.07V93.81C82.1504 98.2283 85.7321 101.81 90.1504 101.81H118.5C122.919 101.81 126.5 98.2283 126.5 93.81V81.07C126.5 76.6517 122.919 73.07 118.5 73.07Z" fill="#CC3E33" stroke="#882922" stroke-width="3" stroke-linecap="round" stroke-linejoin="round"/>
<path d="M98.2296 92.82C101.201 92.82 103.61 90.4113 103.61 87.44C103.61 84.4687 101.201 82.06 98.2296 82.06C95.2583 82.06 92.8496 84.4687 92.8496 87.44C92.8496 90.4113 95.2583 92.82 98.2296 92.82Z" fill="#FFEEC0" stroke="#882922" stroke-width="3" stroke-linecap="round" stroke-linejoin="round"/>
</g>
<defs>
<clipPath id="clip0_215_4463">
<rect width="128" height="128" fill="white"/>
</clipPath>
</defs>
</svg>
