<svg width="24" height="25" viewBox="0 0 24 25" fill="none" xmlns="http://www.w3.org/2000/svg">
<path d="M12 3.5C13.86 3.5 15.63 4.24 16.95 5.55C18.26 6.86 19 8.64 19 10.49C19 13.69 15.94 18.18 13.45 20.86C12.65 21.72 11.34 21.72 10.55 20.86C8.06 18.18 5 13.7 5 10.49C5 8.64 5.74 6.86 7.05 5.55C8.36 4.24 10.14 3.5 12 3.5Z" stroke="#FEFEFE" stroke-width="2" stroke-miterlimit="10"/>
<path d="M12 12.76C13.1046 12.76 14 11.8646 14 10.76C14 9.65544 13.1046 8.76001 12 8.76001C10.8954 8.76001 10 9.65544 10 10.76C10 11.8646 10.8954 12.76 12 12.76Z" stroke="#FEFEFE" stroke-width="2" stroke-miterlimit="10"/>
</svg>
