<svg width="2507" height="1059" viewBox="0 0 2507 1059" fill="none" xmlns="http://www.w3.org/2000/svg">
<g clip-path="url(#clip0_57_236)">
<path d="M235.02 164.2C249.45 164.2 263.25 167.47 276.03 173.93C287.18 179.55 297.19 187.56 305.17 197.2L313.35 195.36C304.34 183.6 292.61 173.87 279.42 167.21C265.58 160.22 250.64 156.66 235.02 156.66V164.19V164.2Z" fill="#AA342B"/>
<path d="M78.34 164.2C92.77 164.2 106.57 167.47 119.35 173.93C130.5 179.55 140.51 187.56 148.49 197.2L156.67 195.36C147.66 183.6 135.93 173.87 122.74 167.21C108.9 160.22 93.96 156.66 78.34 156.66V164.19V164.2Z" fill="#AA342B"/>
<path d="M194 95.59C206.78 89.13 220.58 85.86 235.01 85.86V78.33C219.39 78.33 204.45 81.88 190.6 88.88C177.41 95.53 165.67 105.27 156.67 117.04L164.84 118.88C172.83 109.23 182.84 101.22 194 95.6V95.59Z" fill="#AA342B"/>
<path d="M37.33 95.59C50.11 89.13 63.91 85.86 78.34 85.86V78.33C62.72 78.33 47.78 81.88 33.93 88.88C20.74 95.53 9 105.27 0 117.04L8.17 118.88C16.16 109.23 26.17 101.22 37.33 95.6V95.59Z" fill="#AA342B"/>
<path d="M235.02 7.52999C249.45 7.52999 263.25 10.8 276.03 17.26C287.18 22.88 297.19 30.89 305.17 40.53L313.35 38.69C304.34 26.93 292.61 17.2 279.42 10.54C265.58 3.54999 250.64 -0.0100098 235.02 -0.0100098V7.51999V7.52999Z" fill="#AA342B"/>
<path d="M78.34 7.53C92.77 7.53 106.57 10.8 119.35 17.26C130.5 22.88 140.51 30.89 148.49 40.53L156.67 38.69C147.66 26.93 135.93 17.2 122.74 10.54C108.9 3.55 93.96 0 78.34 0V7.53Z" fill="#AA342B"/>
<path d="M235.02 477.54C249.45 477.54 263.25 480.81 276.03 487.27C287.18 492.89 297.19 500.9 305.17 510.54L313.35 508.7C304.34 496.94 292.61 487.21 279.42 480.55C265.58 473.56 250.64 470 235.02 470V477.53V477.54Z" fill="#AA342B"/>
<path d="M78.34 477.54C92.77 477.54 106.57 480.81 119.35 487.27C130.5 492.89 140.51 500.9 148.49 510.54L156.67 508.7C147.66 496.94 135.93 487.21 122.74 480.55C108.9 473.56 93.96 470 78.34 470V477.53V477.54Z" fill="#AA342B"/>
<path d="M194 408.93C206.78 402.47 220.58 399.2 235.01 399.2V391.67C219.39 391.67 204.45 395.22 190.6 402.22C177.41 408.87 165.67 418.61 156.67 430.38L164.84 432.22C172.83 422.57 182.84 414.56 194 408.94V408.93Z" fill="#AA342B"/>
<path d="M37.33 408.93C50.11 402.47 63.91 399.2 78.34 399.2V391.67C62.72 391.67 47.78 395.22 33.93 402.22C20.74 408.87 9 418.61 0 430.38L8.17 432.22C16.16 422.57 26.17 414.56 37.33 408.94V408.93Z" fill="#AA342B"/>
<path d="M235.02 320.87C249.45 320.87 263.25 324.14 276.03 330.6C287.18 336.22 297.19 344.23 305.17 353.87L313.35 352.03C304.34 340.27 292.61 330.54 279.42 323.88C265.58 316.89 250.64 313.33 235.02 313.33V320.86V320.87Z" fill="#AA342B"/>
<path d="M78.34 320.87C92.77 320.87 106.57 324.14 119.35 330.6C130.5 336.22 140.51 344.23 148.49 353.87L156.67 352.03C147.66 340.27 135.93 330.54 122.74 323.88C108.9 316.89 93.96 313.33 78.34 313.33V320.86V320.87Z" fill="#AA342B"/>
<path d="M194 252.26C206.78 245.8 220.58 242.53 235.01 242.53V235C219.39 235 204.45 238.55 190.6 245.55C177.41 252.2 165.67 261.94 156.67 273.71L164.84 275.55C172.83 265.9 182.84 257.89 194 252.27V252.26Z" fill="#AA342B"/>
<path d="M37.33 252.26C50.11 245.8 63.91 242.53 78.34 242.53V235C62.72 235 47.78 238.55 33.93 245.55C20.74 252.2 9 261.94 0 273.71L8.17 275.55C16.16 265.9 26.17 257.89 37.33 252.27V252.26Z" fill="#AA342B"/>
<path d="M235.02 790.89C249.45 790.89 263.25 794.16 276.03 800.62C287.18 806.24 297.19 814.25 305.17 823.89L313.35 822.05C304.34 810.29 292.61 800.56 279.42 793.9C265.58 786.91 250.64 783.35 235.02 783.35V790.88V790.89Z" fill="#AA342B"/>
<path d="M78.34 790.89C92.77 790.89 106.57 794.16 119.35 800.62C130.5 806.24 140.51 814.25 148.49 823.89L156.67 822.05C147.66 810.29 135.93 800.56 122.74 793.9C108.9 786.91 93.96 783.35 78.34 783.35V790.88V790.89Z" fill="#AA342B"/>
<path d="M194 722.28C206.78 715.82 220.58 712.55 235.01 712.55V705.02C219.39 705.02 204.45 708.57 190.6 715.57C177.41 722.22 165.67 731.96 156.67 743.73L164.84 745.57C172.83 735.92 182.84 727.91 194 722.29V722.28Z" fill="#AA342B"/>
<path d="M37.33 722.28C50.11 715.82 63.91 712.55 78.34 712.55V705.02C62.72 705.02 47.78 708.57 33.93 715.57C20.74 722.22 9 731.96 0 743.73L8.17 745.57C16.16 735.92 26.17 727.91 37.33 722.29V722.28Z" fill="#AA342B"/>
<path d="M235.02 634.22C249.45 634.22 263.25 637.49 276.03 643.95C287.18 649.57 297.19 657.58 305.17 667.22L313.35 665.38C304.34 653.62 292.61 643.89 279.42 637.23C265.58 630.24 250.64 626.68 235.02 626.68V634.21V634.22Z" fill="#AA342B"/>
<path d="M78.34 634.22C92.77 634.22 106.57 637.49 119.35 643.95C130.5 649.57 140.51 657.58 148.49 667.22L156.67 665.38C147.66 653.62 135.93 643.89 122.74 637.23C108.9 630.24 93.96 626.68 78.34 626.68V634.21V634.22Z" fill="#AA342B"/>
<path d="M194 565.61C206.78 559.15 220.58 555.88 235.01 555.88V548.35C219.39 548.35 204.45 551.9 190.6 558.9C177.41 565.55 165.67 575.29 156.67 587.06L164.84 588.9C172.83 579.25 182.84 571.24 194 565.62V565.61Z" fill="#AA342B"/>
<path d="M37.33 565.61C50.11 559.15 63.91 555.88 78.34 555.88V548.35C62.72 548.35 47.78 551.9 33.93 558.9C20.74 565.55 9 575.29 0 587.06L8.17 588.9C16.16 579.25 26.17 571.24 37.33 565.62V565.61Z" fill="#AA342B"/>
<path d="M194 1035.62C206.78 1029.16 220.58 1025.89 235.01 1025.89V1018.36C219.39 1018.36 204.45 1021.91 190.6 1028.91C177.41 1035.56 165.67 1045.3 156.67 1057.07L164.84 1058.91C172.83 1049.26 182.84 1041.25 194 1035.63V1035.62Z" fill="#AA342B"/>
<path d="M37.33 1035.62C50.11 1029.16 63.91 1025.89 78.34 1025.89V1018.36C62.72 1018.36 47.78 1021.91 33.93 1028.91C20.74 1035.56 9 1045.3 0 1057.07L8.17 1058.91C16.16 1049.26 26.17 1041.25 37.33 1035.63V1035.62Z" fill="#AA342B"/>
<path d="M235.02 947.56C249.45 947.56 263.25 950.83 276.03 957.29C287.18 962.91 297.19 970.92 305.17 980.56L313.35 978.72C304.34 966.96 292.61 957.23 279.42 950.57C265.58 943.58 250.64 940.02 235.02 940.02V947.55V947.56Z" fill="#AA342B"/>
<path d="M78.34 947.56C92.77 947.56 106.57 950.83 119.35 957.29C130.5 962.91 140.51 970.92 148.49 980.56L156.67 978.72C147.66 966.96 135.93 957.23 122.74 950.57C108.9 943.58 93.96 940.02 78.34 940.02V947.55V947.56Z" fill="#AA342B"/>
<path d="M194 878.95C206.78 872.49 220.58 869.22 235.01 869.22V861.69C219.39 861.69 204.45 865.24 190.6 872.24C177.41 878.89 165.67 888.63 156.67 900.4L164.84 902.24C172.83 892.59 182.84 884.58 194 878.96V878.95Z" fill="#AA342B"/>
<path d="M37.33 878.95C50.11 872.49 63.91 869.22 78.34 869.22V861.69C62.72 861.69 47.78 865.24 33.93 872.24C20.74 878.89 9 888.63 0 900.4L8.17 902.24C16.16 892.59 26.17 884.58 37.33 878.96V878.95Z" fill="#AA342B"/>
<path d="M548.37 164.2C562.8 164.2 576.6 167.47 589.38 173.93C600.53 179.55 610.54 187.56 618.52 197.2L626.7 195.36C617.69 183.6 605.96 173.87 592.77 167.21C578.93 160.22 563.99 156.66 548.37 156.66V164.19V164.2Z" fill="#AA342B"/>
<path d="M391.69 164.2C406.12 164.2 419.92 167.47 432.7 173.93C443.85 179.55 453.86 187.56 461.84 197.2L470.02 195.36C461.01 183.6 449.28 173.87 436.09 167.21C422.25 160.22 407.31 156.66 391.69 156.66V164.19V164.2Z" fill="#AA342B"/>
<path d="M507.35 95.59C520.13 89.13 533.93 85.86 548.36 85.86V78.33C532.74 78.33 517.8 81.88 503.95 88.88C490.76 95.53 479.02 105.27 470.02 117.04L478.19 118.88C486.18 109.23 496.19 101.22 507.35 95.6V95.59Z" fill="#AA342B"/>
<path d="M350.68 95.59C363.46 89.13 377.26 85.86 391.69 85.86V78.33C376.07 78.33 361.13 81.88 347.28 88.88C334.09 95.53 322.35 105.27 313.35 117.04L321.52 118.88C329.51 109.23 339.52 101.22 350.68 95.6V95.59Z" fill="#AA342B"/>
<path d="M548.37 7.52999C562.8 7.52999 576.6 10.8 589.38 17.26C600.53 22.88 610.54 30.89 618.52 40.53L626.7 38.69C617.69 26.93 605.96 17.2 592.77 10.54C578.93 3.54999 563.99 -0.0100098 548.37 -0.0100098V7.51999V7.52999Z" fill="#AA342B"/>
<path d="M391.69 7.52999C406.12 7.52999 419.92 10.8 432.7 17.26C443.85 22.88 453.86 30.89 461.84 40.53L470.02 38.69C461.01 26.93 449.28 17.2 436.09 10.54C422.25 3.54999 407.31 -0.0100098 391.69 -0.0100098V7.51999V7.52999Z" fill="#AA342B"/>
<path d="M548.37 477.54C562.8 477.54 576.6 480.81 589.38 487.27C600.53 492.89 610.54 500.9 618.52 510.54L626.7 508.7C617.69 496.94 605.96 487.21 592.77 480.55C578.93 473.56 563.99 470 548.37 470V477.53V477.54Z" fill="#AA342B"/>
<path d="M391.69 477.54C406.12 477.54 419.92 480.81 432.7 487.27C443.85 492.89 453.86 500.9 461.84 510.54L470.02 508.7C461.01 496.94 449.28 487.21 436.09 480.55C422.25 473.56 407.31 470 391.69 470V477.53V477.54Z" fill="#AA342B"/>
<path d="M507.35 408.93C520.13 402.47 533.93 399.2 548.36 399.2V391.67C532.74 391.67 517.8 395.22 503.95 402.22C490.76 408.87 479.02 418.61 470.02 430.38L478.19 432.22C486.18 422.57 496.19 414.56 507.35 408.94V408.93Z" fill="#AA342B"/>
<path d="M350.68 408.93C363.46 402.47 377.26 399.2 391.69 399.2V391.67C376.07 391.67 361.13 395.22 347.28 402.22C334.09 408.87 322.35 418.61 313.35 430.38L321.52 432.22C329.51 422.57 339.52 414.56 350.68 408.94V408.93Z" fill="#AA342B"/>
<path d="M548.37 320.87C562.8 320.87 576.6 324.14 589.38 330.6C600.53 336.22 610.54 344.23 618.52 353.87L626.7 352.03C617.69 340.27 605.96 330.54 592.77 323.88C578.93 316.89 563.99 313.33 548.37 313.33V320.86V320.87Z" fill="#AA342B"/>
<path d="M391.69 320.87C406.12 320.87 419.92 324.14 432.7 330.6C443.85 336.22 453.86 344.23 461.84 353.87L470.02 352.03C461.01 340.27 449.28 330.54 436.09 323.88C422.25 316.89 407.31 313.33 391.69 313.33V320.86V320.87Z" fill="#AA342B"/>
<path d="M507.35 252.26C520.13 245.8 533.93 242.53 548.36 242.53V235C532.74 235 517.8 238.55 503.95 245.55C490.76 252.2 479.02 261.94 470.02 273.71L478.19 275.55C486.18 265.9 496.19 257.89 507.35 252.27V252.26Z" fill="#AA342B"/>
<path d="M350.68 252.26C363.46 245.8 377.26 242.53 391.69 242.53V235C376.07 235 361.13 238.55 347.28 245.55C334.09 252.2 322.35 261.94 313.35 273.71L321.52 275.55C329.51 265.9 339.52 257.89 350.68 252.27V252.26Z" fill="#AA342B"/>
<path d="M548.37 790.89C562.8 790.89 576.6 794.16 589.38 800.62C600.53 806.24 610.54 814.25 618.52 823.89L626.7 822.05C617.69 810.29 605.96 800.56 592.77 793.9C578.93 786.91 563.99 783.35 548.37 783.35V790.88V790.89Z" fill="#AA342B"/>
<path d="M391.69 790.89C406.12 790.89 419.92 794.16 432.7 800.62C443.85 806.24 453.86 814.25 461.84 823.89L470.02 822.05C461.01 810.29 449.28 800.56 436.09 793.9C422.25 786.91 407.31 783.35 391.69 783.35V790.88V790.89Z" fill="#AA342B"/>
<path d="M507.35 722.28C520.13 715.82 533.93 712.55 548.36 712.55V705.02C532.74 705.02 517.8 708.57 503.95 715.57C490.76 722.22 479.02 731.96 470.02 743.73L478.19 745.57C486.18 735.92 496.19 727.91 507.35 722.29V722.28Z" fill="#AA342B"/>
<path d="M350.68 722.28C363.46 715.82 377.26 712.55 391.69 712.55V705.02C376.07 705.02 361.13 708.57 347.28 715.57C334.09 722.22 322.35 731.96 313.35 743.73L321.52 745.57C329.51 735.92 339.52 727.91 350.68 722.29V722.28Z" fill="#AA342B"/>
<path d="M548.37 634.22C562.8 634.22 576.6 637.49 589.38 643.95C600.53 649.57 610.54 657.58 618.52 667.22L626.7 665.38C617.69 653.62 605.96 643.89 592.77 637.23C578.93 630.24 563.99 626.68 548.37 626.68V634.21V634.22Z" fill="#AA342B"/>
<path d="M391.69 634.22C406.12 634.22 419.92 637.49 432.7 643.95C443.85 649.57 453.86 657.58 461.84 667.22L470.02 665.38C461.01 653.62 449.28 643.89 436.09 637.23C422.25 630.24 407.31 626.68 391.69 626.68V634.21V634.22Z" fill="#AA342B"/>
<path d="M507.35 565.61C520.13 559.15 533.93 555.88 548.36 555.88V548.35C532.74 548.35 517.8 551.9 503.95 558.9C490.76 565.55 479.02 575.29 470.02 587.06L478.19 588.9C486.18 579.25 496.19 571.24 507.35 565.62V565.61Z" fill="#AA342B"/>
<path d="M350.68 565.61C363.46 559.15 377.26 555.88 391.69 555.88V548.35C376.07 548.35 361.13 551.9 347.28 558.9C334.09 565.55 322.35 575.29 313.35 587.06L321.52 588.9C329.51 579.25 339.52 571.24 350.68 565.62V565.61Z" fill="#AA342B"/>
<path d="M507.35 1035.62C520.13 1029.16 533.93 1025.89 548.36 1025.89V1018.36C532.74 1018.36 517.8 1021.91 503.95 1028.91C490.76 1035.56 479.02 1045.3 470.02 1057.07L478.19 1058.91C486.18 1049.26 496.19 1041.25 507.35 1035.63V1035.62Z" fill="#AA342B"/>
<path d="M350.68 1035.62C363.46 1029.16 377.26 1025.89 391.69 1025.89V1018.36C376.07 1018.36 361.13 1021.91 347.28 1028.91C334.09 1035.56 322.35 1045.3 313.35 1057.07L321.52 1058.91C329.51 1049.26 339.52 1041.25 350.68 1035.63V1035.62Z" fill="#AA342B"/>
<path d="M548.37 947.56C562.8 947.56 576.6 950.83 589.38 957.29C600.53 962.91 610.54 970.92 618.52 980.56L626.7 978.72C617.69 966.96 605.96 957.23 592.77 950.57C578.93 943.58 563.99 940.02 548.37 940.02V947.55V947.56Z" fill="#AA342B"/>
<path d="M391.69 947.56C406.12 947.56 419.92 950.83 432.7 957.29C443.85 962.91 453.86 970.92 461.84 980.56L470.02 978.72C461.01 966.96 449.28 957.23 436.09 950.57C422.25 943.58 407.31 940.02 391.69 940.02V947.55V947.56Z" fill="#AA342B"/>
<path d="M507.35 878.95C520.13 872.49 533.93 869.22 548.36 869.22V861.69C532.74 861.69 517.8 865.24 503.95 872.24C490.76 878.89 479.02 888.63 470.02 900.4L478.19 902.24C486.18 892.59 496.19 884.58 507.35 878.96V878.95Z" fill="#AA342B"/>
<path d="M350.68 878.95C363.46 872.49 377.26 869.22 391.69 869.22V861.69C376.07 861.69 361.13 865.24 347.28 872.24C334.09 878.89 322.35 888.63 313.35 900.4L321.52 902.24C329.51 892.59 339.52 884.58 350.68 878.96V878.95Z" fill="#AA342B"/>
<path d="M861.72 164.2C876.15 164.2 889.95 167.47 902.73 173.93C913.88 179.55 923.89 187.56 931.87 197.2L940.05 195.36C931.04 183.6 919.31 173.87 906.12 167.21C892.28 160.22 877.34 156.66 861.72 156.66V164.19V164.2Z" fill="#AA342B"/>
<path d="M705.04 164.2C719.47 164.2 733.27 167.47 746.05 173.93C757.2 179.55 767.21 187.56 775.19 197.2L783.37 195.36C774.36 183.6 762.63 173.87 749.44 167.21C735.6 160.22 720.66 156.66 705.04 156.66V164.19V164.2Z" fill="#AA342B"/>
<path d="M820.7 95.59C833.48 89.13 847.28 85.86 861.71 85.86V78.33C846.09 78.33 831.15 81.88 817.3 88.88C804.11 95.53 792.37 105.27 783.37 117.04L791.54 118.88C799.53 109.23 809.54 101.22 820.7 95.6V95.59Z" fill="#AA342B"/>
<path d="M664.03 95.59C676.81 89.13 690.61 85.86 705.04 85.86V78.33C689.42 78.33 674.48 81.88 660.63 88.88C647.44 95.53 635.7 105.27 626.7 117.04L634.87 118.88C642.86 109.23 652.87 101.22 664.03 95.6V95.59Z" fill="#AA342B"/>
<path d="M861.72 7.52999C876.15 7.52999 889.95 10.8 902.73 17.26C913.88 22.88 923.89 30.89 931.87 40.53L940.05 38.69C931.04 26.93 919.31 17.2 906.12 10.54C892.28 3.54999 877.34 -0.0100098 861.72 -0.0100098V7.51999V7.52999Z" fill="#AA342B"/>
<path d="M705.04 7.52999C719.47 7.52999 733.27 10.8 746.05 17.26C757.2 22.88 767.21 30.89 775.19 40.53L783.37 38.69C774.36 26.93 762.63 17.2 749.44 10.54C735.6 3.54999 720.66 -0.0100098 705.04 -0.0100098V7.51999V7.52999Z" fill="#AA342B"/>
<path d="M861.72 477.54C876.15 477.54 889.95 480.81 902.73 487.27C913.88 492.89 923.89 500.9 931.87 510.54L940.05 508.7C931.04 496.94 919.31 487.21 906.12 480.55C892.28 473.56 877.34 470 861.72 470V477.53V477.54Z" fill="#AA342B"/>
<path d="M705.04 477.54C719.47 477.54 733.27 480.81 746.05 487.27C757.2 492.89 767.21 500.9 775.19 510.54L783.37 508.7C774.36 496.94 762.63 487.21 749.44 480.55C735.6 473.56 720.66 470 705.04 470V477.53V477.54Z" fill="#AA342B"/>
<path d="M820.7 408.93C833.48 402.47 847.28 399.2 861.71 399.2V391.67C846.09 391.67 831.15 395.22 817.3 402.22C804.11 408.87 792.37 418.61 783.37 430.38L791.54 432.22C799.53 422.57 809.54 414.56 820.7 408.94V408.93Z" fill="#AA342B"/>
<path d="M664.03 408.93C676.81 402.47 690.61 399.2 705.04 399.2V391.67C689.42 391.67 674.48 395.22 660.63 402.22C647.44 408.87 635.7 418.61 626.7 430.38L634.87 432.22C642.86 422.57 652.87 414.56 664.03 408.94V408.93Z" fill="#AA342B"/>
<path d="M861.72 320.87C876.15 320.87 889.95 324.14 902.73 330.6C913.88 336.22 923.89 344.23 931.87 353.87L940.05 352.03C931.04 340.27 919.31 330.54 906.12 323.88C892.28 316.89 877.34 313.33 861.72 313.33V320.86V320.87Z" fill="#AA342B"/>
<path d="M705.04 320.87C719.47 320.87 733.27 324.14 746.05 330.6C757.2 336.22 767.21 344.23 775.19 353.87L783.37 352.03C774.36 340.27 762.63 330.54 749.44 323.88C735.6 316.89 720.66 313.33 705.04 313.33V320.86V320.87Z" fill="#AA342B"/>
<path d="M820.7 252.26C833.48 245.8 847.28 242.53 861.71 242.53V235C846.09 235 831.15 238.55 817.3 245.55C804.11 252.2 792.37 261.94 783.37 273.71L791.54 275.55C799.53 265.9 809.54 257.89 820.7 252.27V252.26Z" fill="#AA342B"/>
<path d="M664.03 252.26C676.81 245.8 690.61 242.53 705.04 242.53V235C689.42 235 674.48 238.55 660.63 245.55C647.44 252.2 635.7 261.94 626.7 273.71L634.87 275.55C642.86 265.9 652.87 257.89 664.03 252.27V252.26Z" fill="#AA342B"/>
<path d="M861.72 790.89C876.15 790.89 889.95 794.16 902.73 800.62C913.88 806.24 923.89 814.25 931.87 823.89L940.05 822.05C931.04 810.29 919.31 800.56 906.12 793.9C892.28 786.91 877.34 783.35 861.72 783.35V790.88V790.89Z" fill="#AA342B"/>
<path d="M705.04 790.89C719.47 790.89 733.27 794.16 746.05 800.62C757.2 806.24 767.21 814.25 775.19 823.89L783.37 822.05C774.36 810.29 762.63 800.56 749.44 793.9C735.6 786.91 720.66 783.35 705.04 783.35V790.88V790.89Z" fill="#AA342B"/>
<path d="M820.7 722.28C833.48 715.82 847.28 712.55 861.71 712.55V705.02C846.09 705.02 831.15 708.57 817.3 715.57C804.11 722.22 792.37 731.96 783.37 743.73L791.54 745.57C799.53 735.92 809.54 727.91 820.7 722.29V722.28Z" fill="#AA342B"/>
<path d="M664.03 722.28C676.81 715.82 690.61 712.55 705.04 712.55V705.02C689.42 705.02 674.48 708.57 660.63 715.57C647.44 722.22 635.7 731.96 626.7 743.73L634.87 745.57C642.86 735.92 652.87 727.91 664.03 722.29V722.28Z" fill="#AA342B"/>
<path d="M861.72 634.22C876.15 634.22 889.95 637.49 902.73 643.95C913.88 649.57 923.89 657.58 931.87 667.22L940.05 665.38C931.04 653.62 919.31 643.89 906.12 637.23C892.28 630.24 877.34 626.68 861.72 626.68V634.21V634.22Z" fill="#AA342B"/>
<path d="M705.04 634.22C719.47 634.22 733.27 637.49 746.05 643.95C757.2 649.57 767.21 657.58 775.19 667.22L783.37 665.38C774.36 653.62 762.63 643.89 749.44 637.23C735.6 630.24 720.66 626.68 705.04 626.68V634.21V634.22Z" fill="#AA342B"/>
<path d="M820.7 565.61C833.48 559.15 847.28 555.88 861.71 555.88V548.35C846.09 548.35 831.15 551.9 817.3 558.9C804.11 565.55 792.37 575.29 783.37 587.06L791.54 588.9C799.53 579.25 809.54 571.24 820.7 565.62V565.61Z" fill="#AA342B"/>
<path d="M664.03 565.61C676.81 559.15 690.61 555.88 705.04 555.88V548.35C689.42 548.35 674.48 551.9 660.63 558.9C647.44 565.55 635.7 575.29 626.7 587.06L634.87 588.9C642.86 579.25 652.87 571.24 664.03 565.62V565.61Z" fill="#AA342B"/>
<path d="M820.7 1035.62C833.48 1029.16 847.28 1025.89 861.71 1025.89V1018.36C846.09 1018.36 831.15 1021.91 817.3 1028.91C804.11 1035.56 792.37 1045.3 783.37 1057.07L791.54 1058.91C799.53 1049.26 809.54 1041.25 820.7 1035.63V1035.62Z" fill="#AA342B"/>
<path d="M664.03 1035.62C676.81 1029.16 690.61 1025.89 705.04 1025.89V1018.36C689.42 1018.36 674.48 1021.91 660.63 1028.91C647.44 1035.56 635.7 1045.3 626.7 1057.07L634.87 1058.91C642.86 1049.26 652.87 1041.25 664.03 1035.63V1035.62Z" fill="#AA342B"/>
<path d="M861.72 947.56C876.15 947.56 889.95 950.83 902.73 957.29C913.88 962.91 923.89 970.92 931.87 980.56L940.05 978.72C931.04 966.96 919.31 957.23 906.12 950.57C892.28 943.58 877.34 940.02 861.72 940.02V947.55V947.56Z" fill="#AA342B"/>
<path d="M705.04 947.56C719.47 947.56 733.27 950.83 746.05 957.29C757.2 962.91 767.21 970.92 775.19 980.56L783.37 978.72C774.36 966.96 762.63 957.23 749.44 950.57C735.6 943.58 720.66 940.02 705.04 940.02V947.55V947.56Z" fill="#AA342B"/>
<path d="M820.7 878.95C833.48 872.49 847.28 869.22 861.71 869.22V861.69C846.09 861.69 831.15 865.24 817.3 872.24C804.11 878.89 792.37 888.63 783.37 900.4L791.54 902.24C799.53 892.59 809.54 884.58 820.7 878.96V878.95Z" fill="#AA342B"/>
<path d="M664.03 878.95C676.81 872.49 690.61 869.22 705.04 869.22V861.69C689.42 861.69 674.48 865.24 660.63 872.24C647.44 878.89 635.7 888.63 626.7 900.4L634.87 902.24C642.86 892.59 652.87 884.58 664.03 878.96V878.95Z" fill="#AA342B"/>
<path d="M1175.07 164.2C1189.5 164.2 1203.3 167.47 1216.08 173.93C1227.23 179.55 1237.24 187.56 1245.22 197.2L1253.4 195.36C1244.39 183.6 1232.66 173.87 1219.47 167.21C1205.63 160.22 1190.69 156.66 1175.07 156.66V164.19V164.2Z" fill="#AA342B"/>
<path d="M1018.39 164.2C1032.82 164.2 1046.62 167.47 1059.4 173.93C1070.55 179.55 1080.56 187.56 1088.54 197.2L1096.72 195.36C1087.71 183.6 1075.98 173.87 1062.79 167.21C1048.95 160.22 1034.01 156.66 1018.39 156.66V164.19V164.2Z" fill="#AA342B"/>
<path d="M1134.05 95.59C1146.83 89.13 1160.63 85.86 1175.06 85.86V78.33C1159.44 78.33 1144.5 81.88 1130.65 88.88C1117.46 95.53 1105.72 105.27 1096.72 117.04L1104.89 118.88C1112.88 109.23 1122.89 101.22 1134.05 95.6V95.59Z" fill="#AA342B"/>
<path d="M977.38 95.59C990.16 89.13 1003.96 85.86 1018.39 85.86V78.33C1002.77 78.33 987.83 81.88 973.98 88.88C960.79 95.53 949.05 105.27 940.05 117.04L948.22 118.88C956.21 109.23 966.22 101.22 977.38 95.6V95.59Z" fill="#AA342B"/>
<path d="M1175.07 7.52999C1189.5 7.52999 1203.3 10.8 1216.08 17.26C1227.23 22.88 1237.24 30.89 1245.22 40.53L1253.4 38.69C1244.39 26.93 1232.66 17.2 1219.47 10.54C1205.63 3.54999 1190.69 -0.0100098 1175.07 -0.0100098V7.51999V7.52999Z" fill="#AA342B"/>
<path d="M1018.39 7.52999C1032.82 7.52999 1046.62 10.8 1059.4 17.26C1070.55 22.88 1080.56 30.89 1088.54 40.53L1096.72 38.69C1087.71 26.93 1075.98 17.2 1062.79 10.54C1048.95 3.54999 1034.01 -0.0100098 1018.39 -0.0100098V7.51999V7.52999Z" fill="#AA342B"/>
<path d="M1175.07 477.54C1189.5 477.54 1203.3 480.81 1216.08 487.27C1227.23 492.89 1237.24 500.9 1245.22 510.54L1253.4 508.7C1244.39 496.94 1232.66 487.21 1219.47 480.55C1205.63 473.56 1190.69 470 1175.07 470V477.53V477.54Z" fill="#AA342B"/>
<path d="M1018.39 477.54C1032.82 477.54 1046.62 480.81 1059.4 487.27C1070.55 492.89 1080.56 500.9 1088.54 510.54L1096.72 508.7C1087.71 496.94 1075.98 487.21 1062.79 480.55C1048.95 473.56 1034.01 470 1018.39 470V477.53V477.54Z" fill="#AA342B"/>
<path d="M1134.05 408.93C1146.83 402.47 1160.63 399.2 1175.06 399.2V391.67C1159.44 391.67 1144.5 395.22 1130.65 402.22C1117.46 408.87 1105.72 418.61 1096.72 430.38L1104.89 432.22C1112.88 422.57 1122.89 414.56 1134.05 408.94V408.93Z" fill="#AA342B"/>
<path d="M977.38 408.93C990.16 402.47 1003.96 399.2 1018.39 399.2V391.67C1002.77 391.67 987.83 395.22 973.98 402.22C960.79 408.87 949.05 418.61 940.05 430.38L948.22 432.22C956.21 422.57 966.22 414.56 977.38 408.94V408.93Z" fill="#AA342B"/>
<path d="M1175.07 320.87C1189.5 320.87 1203.3 324.14 1216.08 330.6C1227.23 336.22 1237.24 344.23 1245.22 353.87L1253.4 352.03C1244.39 340.27 1232.66 330.54 1219.47 323.88C1205.63 316.89 1190.69 313.33 1175.07 313.33V320.86V320.87Z" fill="#AA342B"/>
<path d="M1018.39 320.87C1032.82 320.87 1046.62 324.14 1059.4 330.6C1070.55 336.22 1080.56 344.23 1088.54 353.87L1096.72 352.03C1087.71 340.27 1075.98 330.54 1062.79 323.88C1048.95 316.89 1034.01 313.33 1018.39 313.33V320.86V320.87Z" fill="#AA342B"/>
<path d="M1134.05 252.26C1146.83 245.8 1160.63 242.53 1175.06 242.53V235C1159.44 235 1144.5 238.55 1130.65 245.55C1117.46 252.2 1105.72 261.94 1096.72 273.71L1104.89 275.55C1112.88 265.9 1122.89 257.89 1134.05 252.27V252.26Z" fill="#AA342B"/>
<path d="M977.38 252.26C990.16 245.8 1003.96 242.53 1018.39 242.53V235C1002.77 235 987.83 238.55 973.98 245.55C960.79 252.2 949.05 261.94 940.05 273.71L948.22 275.55C956.21 265.9 966.22 257.89 977.38 252.27V252.26Z" fill="#AA342B"/>
<path d="M1175.07 790.89C1189.5 790.89 1203.3 794.16 1216.08 800.62C1227.23 806.24 1237.24 814.25 1245.22 823.89L1253.4 822.05C1244.39 810.29 1232.66 800.56 1219.47 793.9C1205.63 786.91 1190.69 783.35 1175.07 783.35V790.88V790.89Z" fill="#AA342B"/>
<path d="M1018.39 790.89C1032.82 790.89 1046.62 794.16 1059.4 800.62C1070.55 806.24 1080.56 814.25 1088.54 823.89L1096.72 822.05C1087.71 810.29 1075.98 800.56 1062.79 793.9C1048.95 786.91 1034.01 783.35 1018.39 783.35V790.88V790.89Z" fill="#AA342B"/>
<path d="M1134.05 722.28C1146.83 715.82 1160.63 712.55 1175.06 712.55V705.02C1159.44 705.02 1144.5 708.57 1130.65 715.57C1117.46 722.22 1105.72 731.96 1096.72 743.73L1104.89 745.57C1112.88 735.92 1122.89 727.91 1134.05 722.29V722.28Z" fill="#AA342B"/>
<path d="M977.38 722.28C990.16 715.82 1003.96 712.55 1018.39 712.55V705.02C1002.77 705.02 987.83 708.57 973.98 715.57C960.79 722.22 949.05 731.96 940.05 743.73L948.22 745.57C956.21 735.92 966.22 727.91 977.38 722.29V722.28Z" fill="#AA342B"/>
<path d="M1175.07 634.22C1189.5 634.22 1203.3 637.49 1216.08 643.95C1227.23 649.57 1237.24 657.58 1245.22 667.22L1253.4 665.38C1244.39 653.62 1232.66 643.89 1219.47 637.23C1205.63 630.24 1190.69 626.68 1175.07 626.68V634.21V634.22Z" fill="#AA342B"/>
<path d="M1018.39 634.22C1032.82 634.22 1046.62 637.49 1059.4 643.95C1070.55 649.57 1080.56 657.58 1088.54 667.22L1096.72 665.38C1087.71 653.62 1075.98 643.89 1062.79 637.23C1048.95 630.24 1034.01 626.68 1018.39 626.68V634.21V634.22Z" fill="#AA342B"/>
<path d="M1134.05 565.61C1146.83 559.15 1160.63 555.88 1175.06 555.88V548.35C1159.44 548.35 1144.5 551.9 1130.65 558.9C1117.46 565.55 1105.72 575.29 1096.72 587.06L1104.89 588.9C1112.88 579.25 1122.89 571.24 1134.05 565.62V565.61Z" fill="#AA342B"/>
<path d="M977.38 565.61C990.16 559.15 1003.96 555.88 1018.39 555.88V548.35C1002.77 548.35 987.83 551.9 973.98 558.9C960.79 565.55 949.05 575.29 940.05 587.06L948.22 588.9C956.21 579.25 966.22 571.24 977.38 565.62V565.61Z" fill="#AA342B"/>
<path d="M1134.05 1035.62C1146.83 1029.16 1160.63 1025.89 1175.06 1025.89V1018.36C1159.44 1018.36 1144.5 1021.91 1130.65 1028.91C1117.46 1035.56 1105.72 1045.3 1096.72 1057.07L1104.89 1058.91C1112.88 1049.26 1122.89 1041.25 1134.05 1035.63V1035.62Z" fill="#AA342B"/>
<path d="M977.38 1035.62C990.16 1029.16 1003.96 1025.89 1018.39 1025.89V1018.36C1002.77 1018.36 987.83 1021.91 973.98 1028.91C960.79 1035.56 949.05 1045.3 940.05 1057.07L948.22 1058.91C956.21 1049.26 966.22 1041.25 977.38 1035.63V1035.62Z" fill="#AA342B"/>
<path d="M1175.07 947.56C1189.5 947.56 1203.3 950.83 1216.08 957.29C1227.23 962.91 1237.24 970.92 1245.22 980.56L1253.4 978.72C1244.39 966.96 1232.66 957.23 1219.47 950.57C1205.63 943.58 1190.69 940.02 1175.07 940.02V947.55V947.56Z" fill="#AA342B"/>
<path d="M1018.39 947.56C1032.82 947.56 1046.62 950.83 1059.4 957.29C1070.55 962.91 1080.56 970.92 1088.54 980.56L1096.72 978.72C1087.71 966.96 1075.98 957.23 1062.79 950.57C1048.95 943.58 1034.01 940.02 1018.39 940.02V947.55V947.56Z" fill="#AA342B"/>
<path d="M1134.05 878.95C1146.83 872.49 1160.63 869.22 1175.06 869.22V861.69C1159.44 861.69 1144.5 865.24 1130.65 872.24C1117.46 878.89 1105.72 888.63 1096.72 900.4L1104.89 902.24C1112.88 892.59 1122.89 884.58 1134.05 878.96V878.95Z" fill="#AA342B"/>
<path d="M977.38 878.95C990.16 872.49 1003.96 869.22 1018.39 869.22V861.69C1002.77 861.69 987.83 865.24 973.98 872.24C960.79 878.89 949.05 888.63 940.05 900.4L948.22 902.24C956.21 892.59 966.22 884.58 977.38 878.96V878.95Z" fill="#AA342B"/>
</g>
<g clip-path="url(#clip1_57_236)">
<path d="M1488.42 164.2C1502.85 164.2 1516.65 167.47 1529.43 173.93C1540.58 179.55 1550.59 187.56 1558.57 197.2L1566.75 195.36C1557.74 183.6 1546.01 173.87 1532.82 167.21C1518.98 160.22 1504.04 156.66 1488.42 156.66V164.19V164.2Z" fill="#AA342B"/>
<path d="M1331.74 164.2C1346.17 164.2 1359.97 167.47 1372.75 173.93C1383.9 179.55 1393.91 187.56 1401.89 197.2L1410.07 195.36C1401.06 183.6 1389.33 173.87 1376.14 167.21C1362.3 160.22 1347.36 156.66 1331.74 156.66V164.19V164.2Z" fill="#AA342B"/>
<path d="M1447.4 95.59C1460.18 89.13 1473.98 85.86 1488.41 85.86V78.33C1472.79 78.33 1457.85 81.88 1444 88.88C1430.81 95.53 1419.07 105.27 1410.07 117.04L1418.24 118.88C1426.23 109.23 1436.24 101.22 1447.4 95.6V95.59Z" fill="#AA342B"/>
<path d="M1290.73 95.59C1303.51 89.13 1317.31 85.86 1331.74 85.86V78.33C1316.12 78.33 1301.18 81.88 1287.33 88.88C1274.14 95.53 1262.4 105.27 1253.4 117.04L1261.57 118.88C1269.56 109.23 1279.57 101.22 1290.73 95.6V95.59Z" fill="#AA342B"/>
<path d="M1488.42 7.52999C1502.85 7.52999 1516.65 10.8 1529.43 17.26C1540.58 22.88 1550.59 30.89 1558.57 40.53L1566.75 38.69C1557.74 26.93 1546.01 17.2 1532.82 10.54C1518.98 3.54999 1504.04 -0.0100098 1488.42 -0.0100098V7.51999V7.52999Z" fill="#AA342B"/>
<path d="M1331.74 7.53C1346.17 7.53 1359.97 10.8 1372.75 17.26C1383.9 22.88 1393.91 30.89 1401.89 40.53L1410.07 38.69C1401.06 26.93 1389.33 17.2 1376.14 10.54C1362.3 3.55 1347.36 0 1331.74 0V7.53Z" fill="#AA342B"/>
<path d="M1488.42 477.54C1502.85 477.54 1516.65 480.81 1529.43 487.27C1540.58 492.89 1550.59 500.9 1558.57 510.54L1566.75 508.7C1557.74 496.94 1546.01 487.21 1532.82 480.55C1518.98 473.56 1504.04 470 1488.42 470V477.53V477.54Z" fill="#AA342B"/>
<path d="M1331.74 477.54C1346.17 477.54 1359.97 480.81 1372.75 487.27C1383.9 492.89 1393.91 500.9 1401.89 510.54L1410.07 508.7C1401.06 496.94 1389.33 487.21 1376.14 480.55C1362.3 473.56 1347.36 470 1331.74 470V477.53V477.54Z" fill="#AA342B"/>
<path d="M1447.4 408.93C1460.18 402.47 1473.98 399.2 1488.41 399.2V391.67C1472.79 391.67 1457.85 395.22 1444 402.22C1430.81 408.87 1419.07 418.61 1410.07 430.38L1418.24 432.22C1426.23 422.57 1436.24 414.56 1447.4 408.94V408.93Z" fill="#AA342B"/>
<path d="M1290.73 408.93C1303.51 402.47 1317.31 399.2 1331.74 399.2V391.67C1316.12 391.67 1301.18 395.22 1287.33 402.22C1274.14 408.87 1262.4 418.61 1253.4 430.38L1261.57 432.22C1269.56 422.57 1279.57 414.56 1290.73 408.94V408.93Z" fill="#AA342B"/>
<path d="M1488.42 320.87C1502.85 320.87 1516.65 324.14 1529.43 330.6C1540.58 336.22 1550.59 344.23 1558.57 353.87L1566.75 352.03C1557.74 340.27 1546.01 330.54 1532.82 323.88C1518.98 316.89 1504.04 313.33 1488.42 313.33V320.86V320.87Z" fill="#AA342B"/>
<path d="M1331.74 320.87C1346.17 320.87 1359.97 324.14 1372.75 330.6C1383.9 336.22 1393.91 344.23 1401.89 353.87L1410.07 352.03C1401.06 340.27 1389.33 330.54 1376.14 323.88C1362.3 316.89 1347.36 313.33 1331.74 313.33V320.86V320.87Z" fill="#AA342B"/>
<path d="M1447.4 252.26C1460.18 245.8 1473.98 242.53 1488.41 242.53V235C1472.79 235 1457.85 238.55 1444 245.55C1430.81 252.2 1419.07 261.94 1410.07 273.71L1418.24 275.55C1426.23 265.9 1436.24 257.89 1447.4 252.27V252.26Z" fill="#AA342B"/>
<path d="M1290.73 252.26C1303.51 245.8 1317.31 242.53 1331.74 242.53V235C1316.12 235 1301.18 238.55 1287.33 245.55C1274.14 252.2 1262.4 261.94 1253.4 273.71L1261.57 275.55C1269.56 265.9 1279.57 257.89 1290.73 252.27V252.26Z" fill="#AA342B"/>
<path d="M1488.42 790.89C1502.85 790.89 1516.65 794.16 1529.43 800.62C1540.58 806.24 1550.59 814.25 1558.57 823.89L1566.75 822.05C1557.74 810.29 1546.01 800.56 1532.82 793.9C1518.98 786.91 1504.04 783.35 1488.42 783.35V790.88V790.89Z" fill="#AA342B"/>
<path d="M1331.74 790.89C1346.17 790.89 1359.97 794.16 1372.75 800.62C1383.9 806.24 1393.91 814.25 1401.89 823.89L1410.07 822.05C1401.06 810.29 1389.33 800.56 1376.14 793.9C1362.3 786.91 1347.36 783.35 1331.74 783.35V790.88V790.89Z" fill="#AA342B"/>
<path d="M1447.4 722.28C1460.18 715.82 1473.98 712.55 1488.41 712.55V705.02C1472.79 705.02 1457.85 708.57 1444 715.57C1430.81 722.22 1419.07 731.96 1410.07 743.73L1418.24 745.57C1426.23 735.92 1436.24 727.91 1447.4 722.29V722.28Z" fill="#AA342B"/>
<path d="M1290.73 722.28C1303.51 715.82 1317.31 712.55 1331.74 712.55V705.02C1316.12 705.02 1301.18 708.57 1287.33 715.57C1274.14 722.22 1262.4 731.96 1253.4 743.73L1261.57 745.57C1269.56 735.92 1279.57 727.91 1290.73 722.29V722.28Z" fill="#AA342B"/>
<path d="M1488.42 634.22C1502.85 634.22 1516.65 637.49 1529.43 643.95C1540.58 649.57 1550.59 657.58 1558.57 667.22L1566.75 665.38C1557.74 653.62 1546.01 643.89 1532.82 637.23C1518.98 630.24 1504.04 626.68 1488.42 626.68V634.21V634.22Z" fill="#AA342B"/>
<path d="M1331.74 634.22C1346.17 634.22 1359.97 637.49 1372.75 643.95C1383.9 649.57 1393.91 657.58 1401.89 667.22L1410.07 665.38C1401.06 653.62 1389.33 643.89 1376.14 637.23C1362.3 630.24 1347.36 626.68 1331.74 626.68V634.21V634.22Z" fill="#AA342B"/>
<path d="M1447.4 565.61C1460.18 559.15 1473.98 555.88 1488.41 555.88V548.35C1472.79 548.35 1457.85 551.9 1444 558.9C1430.81 565.55 1419.07 575.29 1410.07 587.06L1418.24 588.9C1426.23 579.25 1436.24 571.24 1447.4 565.62V565.61Z" fill="#AA342B"/>
<path d="M1290.73 565.61C1303.51 559.15 1317.31 555.88 1331.74 555.88V548.35C1316.12 548.35 1301.18 551.9 1287.33 558.9C1274.14 565.55 1262.4 575.29 1253.4 587.06L1261.57 588.9C1269.56 579.25 1279.57 571.24 1290.73 565.62V565.61Z" fill="#AA342B"/>
<path d="M1447.4 1035.62C1460.18 1029.16 1473.98 1025.89 1488.41 1025.89V1018.36C1472.79 1018.36 1457.85 1021.91 1444 1028.91C1430.81 1035.56 1419.07 1045.3 1410.07 1057.07L1418.24 1058.91C1426.23 1049.26 1436.24 1041.25 1447.4 1035.63V1035.62Z" fill="#AA342B"/>
<path d="M1290.73 1035.62C1303.51 1029.16 1317.31 1025.89 1331.74 1025.89V1018.36C1316.12 1018.36 1301.18 1021.91 1287.33 1028.91C1274.14 1035.56 1262.4 1045.3 1253.4 1057.07L1261.57 1058.91C1269.56 1049.26 1279.57 1041.25 1290.73 1035.63V1035.62Z" fill="#AA342B"/>
<path d="M1488.42 947.56C1502.85 947.56 1516.65 950.83 1529.43 957.29C1540.58 962.91 1550.59 970.92 1558.57 980.56L1566.75 978.72C1557.74 966.96 1546.01 957.23 1532.82 950.57C1518.98 943.58 1504.04 940.02 1488.42 940.02V947.55V947.56Z" fill="#AA342B"/>
<path d="M1331.74 947.56C1346.17 947.56 1359.97 950.83 1372.75 957.29C1383.9 962.91 1393.91 970.92 1401.89 980.56L1410.07 978.72C1401.06 966.96 1389.33 957.23 1376.14 950.57C1362.3 943.58 1347.36 940.02 1331.74 940.02V947.55V947.56Z" fill="#AA342B"/>
<path d="M1447.4 878.95C1460.18 872.49 1473.98 869.22 1488.41 869.22V861.69C1472.79 861.69 1457.85 865.24 1444 872.24C1430.81 878.89 1419.07 888.63 1410.07 900.4L1418.24 902.24C1426.23 892.59 1436.24 884.58 1447.4 878.96V878.95Z" fill="#AA342B"/>
<path d="M1290.73 878.95C1303.51 872.49 1317.31 869.22 1331.74 869.22V861.69C1316.12 861.69 1301.18 865.24 1287.33 872.24C1274.14 878.89 1262.4 888.63 1253.4 900.4L1261.57 902.24C1269.56 892.59 1279.57 884.58 1290.73 878.96V878.95Z" fill="#AA342B"/>
<path d="M1801.77 164.2C1816.2 164.2 1830 167.47 1842.78 173.93C1853.93 179.55 1863.94 187.56 1871.92 197.2L1880.1 195.36C1871.09 183.6 1859.36 173.87 1846.17 167.21C1832.33 160.22 1817.39 156.66 1801.77 156.66V164.19V164.2Z" fill="#AA342B"/>
<path d="M1645.09 164.2C1659.52 164.2 1673.32 167.47 1686.1 173.93C1697.25 179.55 1707.26 187.56 1715.24 197.2L1723.42 195.36C1714.41 183.6 1702.68 173.87 1689.49 167.21C1675.65 160.22 1660.71 156.66 1645.09 156.66V164.19V164.2Z" fill="#AA342B"/>
<path d="M1760.75 95.59C1773.53 89.13 1787.33 85.86 1801.76 85.86V78.33C1786.14 78.33 1771.2 81.88 1757.35 88.88C1744.16 95.53 1732.42 105.27 1723.42 117.04L1731.59 118.88C1739.58 109.23 1749.59 101.22 1760.75 95.6V95.59Z" fill="#AA342B"/>
<path d="M1604.08 95.59C1616.86 89.13 1630.66 85.86 1645.09 85.86V78.33C1629.47 78.33 1614.53 81.88 1600.68 88.88C1587.49 95.53 1575.75 105.27 1566.75 117.04L1574.92 118.88C1582.91 109.23 1592.92 101.22 1604.08 95.6V95.59Z" fill="#AA342B"/>
<path d="M1801.77 7.52999C1816.2 7.52999 1830 10.8 1842.78 17.26C1853.93 22.88 1863.94 30.89 1871.92 40.53L1880.1 38.69C1871.09 26.93 1859.36 17.2 1846.17 10.54C1832.33 3.54999 1817.39 -0.0100098 1801.77 -0.0100098V7.51999V7.52999Z" fill="#AA342B"/>
<path d="M1645.09 7.52999C1659.52 7.52999 1673.32 10.8 1686.1 17.26C1697.25 22.88 1707.26 30.89 1715.24 40.53L1723.42 38.69C1714.41 26.93 1702.68 17.2 1689.49 10.54C1675.65 3.54999 1660.71 -0.0100098 1645.09 -0.0100098V7.51999V7.52999Z" fill="#AA342B"/>
<path d="M1801.77 477.54C1816.2 477.54 1830 480.81 1842.78 487.27C1853.93 492.89 1863.94 500.9 1871.92 510.54L1880.1 508.7C1871.09 496.94 1859.36 487.21 1846.17 480.55C1832.33 473.56 1817.39 470 1801.77 470V477.53V477.54Z" fill="#AA342B"/>
<path d="M1645.09 477.54C1659.52 477.54 1673.32 480.81 1686.1 487.27C1697.25 492.89 1707.26 500.9 1715.24 510.54L1723.42 508.7C1714.41 496.94 1702.68 487.21 1689.49 480.55C1675.65 473.56 1660.71 470 1645.09 470V477.53V477.54Z" fill="#AA342B"/>
<path d="M1760.75 408.93C1773.53 402.47 1787.33 399.2 1801.76 399.2V391.67C1786.14 391.67 1771.2 395.22 1757.35 402.22C1744.16 408.87 1732.42 418.61 1723.42 430.38L1731.59 432.22C1739.58 422.57 1749.59 414.56 1760.75 408.94V408.93Z" fill="#AA342B"/>
<path d="M1604.08 408.93C1616.86 402.47 1630.66 399.2 1645.09 399.2V391.67C1629.47 391.67 1614.53 395.22 1600.68 402.22C1587.49 408.87 1575.75 418.61 1566.75 430.38L1574.92 432.22C1582.91 422.57 1592.92 414.56 1604.08 408.94V408.93Z" fill="#AA342B"/>
<path d="M1801.77 320.87C1816.2 320.87 1830 324.14 1842.78 330.6C1853.93 336.22 1863.94 344.23 1871.92 353.87L1880.1 352.03C1871.09 340.27 1859.36 330.54 1846.17 323.88C1832.33 316.89 1817.39 313.33 1801.77 313.33V320.86V320.87Z" fill="#AA342B"/>
<path d="M1645.09 320.87C1659.52 320.87 1673.32 324.14 1686.1 330.6C1697.25 336.22 1707.26 344.23 1715.24 353.87L1723.42 352.03C1714.41 340.27 1702.68 330.54 1689.49 323.88C1675.65 316.89 1660.71 313.33 1645.09 313.33V320.86V320.87Z" fill="#AA342B"/>
<path d="M1760.75 252.26C1773.53 245.8 1787.33 242.53 1801.76 242.53V235C1786.14 235 1771.2 238.55 1757.35 245.55C1744.16 252.2 1732.42 261.94 1723.42 273.71L1731.59 275.55C1739.58 265.9 1749.59 257.89 1760.75 252.27V252.26Z" fill="#AA342B"/>
<path d="M1604.08 252.26C1616.86 245.8 1630.66 242.53 1645.09 242.53V235C1629.47 235 1614.53 238.55 1600.68 245.55C1587.49 252.2 1575.75 261.94 1566.75 273.71L1574.92 275.55C1582.91 265.9 1592.92 257.89 1604.08 252.27V252.26Z" fill="#AA342B"/>
<path d="M1801.77 790.89C1816.2 790.89 1830 794.16 1842.78 800.62C1853.93 806.24 1863.94 814.25 1871.92 823.89L1880.1 822.05C1871.09 810.29 1859.36 800.56 1846.17 793.9C1832.33 786.91 1817.39 783.35 1801.77 783.35V790.88V790.89Z" fill="#AA342B"/>
<path d="M1645.09 790.89C1659.52 790.89 1673.32 794.16 1686.1 800.62C1697.25 806.24 1707.26 814.25 1715.24 823.89L1723.42 822.05C1714.41 810.29 1702.68 800.56 1689.49 793.9C1675.65 786.91 1660.71 783.35 1645.09 783.35V790.88V790.89Z" fill="#AA342B"/>
<path d="M1760.75 722.28C1773.53 715.82 1787.33 712.55 1801.76 712.55V705.02C1786.14 705.02 1771.2 708.57 1757.35 715.57C1744.16 722.22 1732.42 731.96 1723.42 743.73L1731.59 745.57C1739.58 735.92 1749.59 727.91 1760.75 722.29V722.28Z" fill="#AA342B"/>
<path d="M1604.08 722.28C1616.86 715.82 1630.66 712.55 1645.09 712.55V705.02C1629.47 705.02 1614.53 708.57 1600.68 715.57C1587.49 722.22 1575.75 731.96 1566.75 743.73L1574.92 745.57C1582.91 735.92 1592.92 727.91 1604.08 722.29V722.28Z" fill="#AA342B"/>
<path d="M1801.77 634.22C1816.2 634.22 1830 637.49 1842.78 643.95C1853.93 649.57 1863.94 657.58 1871.92 667.22L1880.1 665.38C1871.09 653.62 1859.36 643.89 1846.17 637.23C1832.33 630.24 1817.39 626.68 1801.77 626.68V634.21V634.22Z" fill="#AA342B"/>
<path d="M1645.09 634.22C1659.52 634.22 1673.32 637.49 1686.1 643.95C1697.25 649.57 1707.26 657.58 1715.24 667.22L1723.42 665.38C1714.41 653.62 1702.68 643.89 1689.49 637.23C1675.65 630.24 1660.71 626.68 1645.09 626.68V634.21V634.22Z" fill="#AA342B"/>
<path d="M1760.75 565.61C1773.53 559.15 1787.33 555.88 1801.76 555.88V548.35C1786.14 548.35 1771.2 551.9 1757.35 558.9C1744.16 565.55 1732.42 575.29 1723.42 587.06L1731.59 588.9C1739.58 579.25 1749.59 571.24 1760.75 565.62V565.61Z" fill="#AA342B"/>
<path d="M1604.08 565.61C1616.86 559.15 1630.66 555.88 1645.09 555.88V548.35C1629.47 548.35 1614.53 551.9 1600.68 558.9C1587.49 565.55 1575.75 575.29 1566.75 587.06L1574.92 588.9C1582.91 579.25 1592.92 571.24 1604.08 565.62V565.61Z" fill="#AA342B"/>
<path d="M1760.75 1035.62C1773.53 1029.16 1787.33 1025.89 1801.76 1025.89V1018.36C1786.14 1018.36 1771.2 1021.91 1757.35 1028.91C1744.16 1035.56 1732.42 1045.3 1723.42 1057.07L1731.59 1058.91C1739.58 1049.26 1749.59 1041.25 1760.75 1035.63V1035.62Z" fill="#AA342B"/>
<path d="M1604.08 1035.62C1616.86 1029.16 1630.66 1025.89 1645.09 1025.89V1018.36C1629.47 1018.36 1614.53 1021.91 1600.68 1028.91C1587.49 1035.56 1575.75 1045.3 1566.75 1057.07L1574.92 1058.91C1582.91 1049.26 1592.92 1041.25 1604.08 1035.63V1035.62Z" fill="#AA342B"/>
<path d="M1801.77 947.56C1816.2 947.56 1830 950.83 1842.78 957.29C1853.93 962.91 1863.94 970.92 1871.92 980.56L1880.1 978.72C1871.09 966.96 1859.36 957.23 1846.17 950.57C1832.33 943.58 1817.39 940.02 1801.77 940.02V947.55V947.56Z" fill="#AA342B"/>
<path d="M1645.09 947.56C1659.52 947.56 1673.32 950.83 1686.1 957.29C1697.25 962.91 1707.26 970.92 1715.24 980.56L1723.42 978.72C1714.41 966.96 1702.68 957.23 1689.49 950.57C1675.65 943.58 1660.71 940.02 1645.09 940.02V947.55V947.56Z" fill="#AA342B"/>
<path d="M1760.75 878.95C1773.53 872.49 1787.33 869.22 1801.76 869.22V861.69C1786.14 861.69 1771.2 865.24 1757.35 872.24C1744.16 878.89 1732.42 888.63 1723.42 900.4L1731.59 902.24C1739.58 892.59 1749.59 884.58 1760.75 878.96V878.95Z" fill="#AA342B"/>
<path d="M1604.08 878.95C1616.86 872.49 1630.66 869.22 1645.09 869.22V861.69C1629.47 861.69 1614.53 865.24 1600.68 872.24C1587.49 878.89 1575.75 888.63 1566.75 900.4L1574.92 902.24C1582.91 892.59 1592.92 884.58 1604.08 878.96V878.95Z" fill="#AA342B"/>
<path d="M2115.12 164.2C2129.55 164.2 2143.35 167.47 2156.13 173.93C2167.28 179.55 2177.29 187.56 2185.27 197.2L2193.45 195.36C2184.44 183.6 2172.71 173.87 2159.52 167.21C2145.68 160.22 2130.74 156.66 2115.12 156.66V164.19V164.2Z" fill="#AA342B"/>
<path d="M1958.44 164.2C1972.87 164.2 1986.67 167.47 1999.45 173.93C2010.6 179.55 2020.61 187.56 2028.59 197.2L2036.77 195.36C2027.76 183.6 2016.03 173.87 2002.84 167.21C1989 160.22 1974.06 156.66 1958.44 156.66V164.19V164.2Z" fill="#AA342B"/>
<path d="M2074.1 95.59C2086.88 89.13 2100.68 85.86 2115.11 85.86V78.33C2099.49 78.33 2084.55 81.88 2070.7 88.88C2057.51 95.53 2045.77 105.27 2036.77 117.04L2044.94 118.88C2052.93 109.23 2062.94 101.22 2074.1 95.6V95.59Z" fill="#AA342B"/>
<path d="M1917.43 95.59C1930.21 89.13 1944.01 85.86 1958.44 85.86V78.33C1942.82 78.33 1927.88 81.88 1914.03 88.88C1900.84 95.53 1889.1 105.27 1880.1 117.04L1888.27 118.88C1896.26 109.23 1906.27 101.22 1917.43 95.6V95.59Z" fill="#AA342B"/>
<path d="M2115.12 7.52999C2129.55 7.52999 2143.35 10.8 2156.13 17.26C2167.28 22.88 2177.29 30.89 2185.27 40.53L2193.45 38.69C2184.44 26.93 2172.71 17.2 2159.52 10.54C2145.68 3.54999 2130.74 -0.0100098 2115.12 -0.0100098V7.51999V7.52999Z" fill="#AA342B"/>
<path d="M1958.44 7.52999C1972.87 7.52999 1986.67 10.8 1999.45 17.26C2010.6 22.88 2020.61 30.89 2028.59 40.53L2036.77 38.69C2027.76 26.93 2016.03 17.2 2002.84 10.54C1989 3.54999 1974.06 -0.0100098 1958.44 -0.0100098V7.51999V7.52999Z" fill="#AA342B"/>
<path d="M2115.12 477.54C2129.55 477.54 2143.35 480.81 2156.13 487.27C2167.28 492.89 2177.29 500.9 2185.27 510.54L2193.45 508.7C2184.44 496.94 2172.71 487.21 2159.52 480.55C2145.68 473.56 2130.74 470 2115.12 470V477.53V477.54Z" fill="#AA342B"/>
<path d="M1958.44 477.54C1972.87 477.54 1986.67 480.81 1999.45 487.27C2010.6 492.89 2020.61 500.9 2028.59 510.54L2036.77 508.7C2027.76 496.94 2016.03 487.21 2002.84 480.55C1989 473.56 1974.06 470 1958.44 470V477.53V477.54Z" fill="#AA342B"/>
<path d="M2074.1 408.93C2086.88 402.47 2100.68 399.2 2115.11 399.2V391.67C2099.49 391.67 2084.55 395.22 2070.7 402.22C2057.51 408.87 2045.77 418.61 2036.77 430.38L2044.94 432.22C2052.93 422.57 2062.94 414.56 2074.1 408.94V408.93Z" fill="#AA342B"/>
<path d="M1917.43 408.93C1930.21 402.47 1944.01 399.2 1958.44 399.2V391.67C1942.82 391.67 1927.88 395.22 1914.03 402.22C1900.84 408.87 1889.1 418.61 1880.1 430.38L1888.27 432.22C1896.26 422.57 1906.27 414.56 1917.43 408.94V408.93Z" fill="#AA342B"/>
<path d="M2115.12 320.87C2129.55 320.87 2143.35 324.14 2156.13 330.6C2167.28 336.22 2177.29 344.23 2185.27 353.87L2193.45 352.03C2184.44 340.27 2172.71 330.54 2159.52 323.88C2145.68 316.89 2130.74 313.33 2115.12 313.33V320.86V320.87Z" fill="#AA342B"/>
<path d="M1958.44 320.87C1972.87 320.87 1986.67 324.14 1999.45 330.6C2010.6 336.22 2020.61 344.23 2028.59 353.87L2036.77 352.03C2027.76 340.27 2016.03 330.54 2002.84 323.88C1989 316.89 1974.06 313.33 1958.44 313.33V320.86V320.87Z" fill="#AA342B"/>
<path d="M2074.1 252.26C2086.88 245.8 2100.68 242.53 2115.11 242.53V235C2099.49 235 2084.55 238.55 2070.7 245.55C2057.51 252.2 2045.77 261.94 2036.77 273.71L2044.94 275.55C2052.93 265.9 2062.94 257.89 2074.1 252.27V252.26Z" fill="#AA342B"/>
<path d="M1917.43 252.26C1930.21 245.8 1944.01 242.53 1958.44 242.53V235C1942.82 235 1927.88 238.55 1914.03 245.55C1900.84 252.2 1889.1 261.94 1880.1 273.71L1888.27 275.55C1896.26 265.9 1906.27 257.89 1917.43 252.27V252.26Z" fill="#AA342B"/>
<path d="M2115.12 790.89C2129.55 790.89 2143.35 794.16 2156.13 800.62C2167.28 806.24 2177.29 814.25 2185.27 823.89L2193.45 822.05C2184.44 810.29 2172.71 800.56 2159.52 793.9C2145.68 786.91 2130.74 783.35 2115.12 783.35V790.88V790.89Z" fill="#AA342B"/>
<path d="M1958.44 790.89C1972.87 790.89 1986.67 794.16 1999.45 800.62C2010.6 806.24 2020.61 814.25 2028.59 823.89L2036.77 822.05C2027.76 810.29 2016.03 800.56 2002.84 793.9C1989 786.91 1974.06 783.35 1958.44 783.35V790.88V790.89Z" fill="#AA342B"/>
<path d="M2074.1 722.28C2086.88 715.82 2100.68 712.55 2115.11 712.55V705.02C2099.49 705.02 2084.55 708.57 2070.7 715.57C2057.51 722.22 2045.77 731.96 2036.77 743.73L2044.94 745.57C2052.93 735.92 2062.94 727.91 2074.1 722.29V722.28Z" fill="#AA342B"/>
<path d="M1917.43 722.28C1930.21 715.82 1944.01 712.55 1958.44 712.55V705.02C1942.82 705.02 1927.88 708.57 1914.03 715.57C1900.84 722.22 1889.1 731.96 1880.1 743.73L1888.27 745.57C1896.26 735.92 1906.27 727.91 1917.43 722.29V722.28Z" fill="#AA342B"/>
<path d="M2115.12 634.22C2129.55 634.22 2143.35 637.49 2156.13 643.95C2167.28 649.57 2177.29 657.58 2185.27 667.22L2193.45 665.38C2184.44 653.62 2172.71 643.89 2159.52 637.23C2145.68 630.24 2130.74 626.68 2115.12 626.68V634.21V634.22Z" fill="#AA342B"/>
<path d="M1958.44 634.22C1972.87 634.22 1986.67 637.49 1999.45 643.95C2010.6 649.57 2020.61 657.58 2028.59 667.22L2036.77 665.38C2027.76 653.62 2016.03 643.89 2002.84 637.23C1989 630.24 1974.06 626.68 1958.44 626.68V634.21V634.22Z" fill="#AA342B"/>
<path d="M2074.1 565.61C2086.88 559.15 2100.68 555.88 2115.11 555.88V548.35C2099.49 548.35 2084.55 551.9 2070.7 558.9C2057.51 565.55 2045.77 575.29 2036.77 587.06L2044.94 588.9C2052.93 579.25 2062.94 571.24 2074.1 565.62V565.61Z" fill="#AA342B"/>
<path d="M1917.43 565.61C1930.21 559.15 1944.01 555.88 1958.44 555.88V548.35C1942.82 548.35 1927.88 551.9 1914.03 558.9C1900.84 565.55 1889.1 575.29 1880.1 587.06L1888.27 588.9C1896.26 579.25 1906.27 571.24 1917.43 565.62V565.61Z" fill="#AA342B"/>
<path d="M2074.1 1035.62C2086.88 1029.16 2100.68 1025.89 2115.11 1025.89V1018.36C2099.49 1018.36 2084.55 1021.91 2070.7 1028.91C2057.51 1035.56 2045.77 1045.3 2036.77 1057.07L2044.94 1058.91C2052.93 1049.26 2062.94 1041.25 2074.1 1035.63V1035.62Z" fill="#AA342B"/>
<path d="M1917.43 1035.62C1930.21 1029.16 1944.01 1025.89 1958.44 1025.89V1018.36C1942.82 1018.36 1927.88 1021.91 1914.03 1028.91C1900.84 1035.56 1889.1 1045.3 1880.1 1057.07L1888.27 1058.91C1896.26 1049.26 1906.27 1041.25 1917.43 1035.63V1035.62Z" fill="#AA342B"/>
<path d="M2115.12 947.56C2129.55 947.56 2143.35 950.83 2156.13 957.29C2167.28 962.91 2177.29 970.92 2185.27 980.56L2193.45 978.72C2184.44 966.96 2172.71 957.23 2159.52 950.57C2145.68 943.58 2130.74 940.02 2115.12 940.02V947.55V947.56Z" fill="#AA342B"/>
<path d="M1958.44 947.56C1972.87 947.56 1986.67 950.83 1999.45 957.29C2010.6 962.91 2020.61 970.92 2028.59 980.56L2036.77 978.72C2027.76 966.96 2016.03 957.23 2002.84 950.57C1989 943.58 1974.06 940.02 1958.44 940.02V947.55V947.56Z" fill="#AA342B"/>
<path d="M2074.1 878.95C2086.88 872.49 2100.68 869.22 2115.11 869.22V861.69C2099.49 861.69 2084.55 865.24 2070.7 872.24C2057.51 878.89 2045.77 888.63 2036.77 900.4L2044.94 902.24C2052.93 892.59 2062.94 884.58 2074.1 878.96V878.95Z" fill="#AA342B"/>
<path d="M1917.43 878.95C1930.21 872.49 1944.01 869.22 1958.44 869.22V861.69C1942.82 861.69 1927.88 865.24 1914.03 872.24C1900.84 878.89 1889.1 888.63 1880.1 900.4L1888.27 902.24C1896.26 892.59 1906.27 884.58 1917.43 878.96V878.95Z" fill="#AA342B"/>
<path d="M2428.47 164.2C2442.9 164.2 2456.7 167.47 2469.48 173.93C2480.63 179.55 2490.64 187.56 2498.62 197.2L2506.8 195.36C2497.79 183.6 2486.06 173.87 2472.87 167.21C2459.03 160.22 2444.09 156.66 2428.47 156.66V164.19V164.2Z" fill="#AA342B"/>
<path d="M2271.79 164.2C2286.22 164.2 2300.02 167.47 2312.8 173.93C2323.95 179.55 2333.96 187.56 2341.94 197.2L2350.12 195.36C2341.11 183.6 2329.38 173.87 2316.19 167.21C2302.35 160.22 2287.41 156.66 2271.79 156.66V164.19V164.2Z" fill="#AA342B"/>
<path d="M2387.45 95.59C2400.23 89.13 2414.03 85.86 2428.46 85.86V78.33C2412.84 78.33 2397.9 81.88 2384.05 88.88C2370.86 95.53 2359.12 105.27 2350.12 117.04L2358.29 118.88C2366.28 109.23 2376.29 101.22 2387.45 95.6V95.59Z" fill="#AA342B"/>
<path d="M2230.78 95.59C2243.56 89.13 2257.36 85.86 2271.79 85.86V78.33C2256.17 78.33 2241.23 81.88 2227.38 88.88C2214.19 95.53 2202.45 105.27 2193.45 117.04L2201.62 118.88C2209.61 109.23 2219.62 101.22 2230.78 95.6V95.59Z" fill="#AA342B"/>
<path d="M2428.47 7.52999C2442.9 7.52999 2456.7 10.8 2469.48 17.26C2480.63 22.88 2490.64 30.89 2498.62 40.53L2506.8 38.69C2497.79 26.93 2486.06 17.2 2472.87 10.54C2459.03 3.54999 2444.09 -0.0100098 2428.47 -0.0100098V7.51999V7.52999Z" fill="#AA342B"/>
<path d="M2271.79 7.52999C2286.22 7.52999 2300.02 10.8 2312.8 17.26C2323.95 22.88 2333.96 30.89 2341.94 40.53L2350.12 38.69C2341.11 26.93 2329.38 17.2 2316.19 10.54C2302.35 3.54999 2287.41 -0.0100098 2271.79 -0.0100098V7.51999V7.52999Z" fill="#AA342B"/>
<path d="M2428.47 477.54C2442.9 477.54 2456.7 480.81 2469.48 487.27C2480.63 492.89 2490.64 500.9 2498.62 510.54L2506.8 508.7C2497.79 496.94 2486.06 487.21 2472.87 480.55C2459.03 473.56 2444.09 470 2428.47 470V477.53V477.54Z" fill="#AA342B"/>
<path d="M2271.79 477.54C2286.22 477.54 2300.02 480.81 2312.8 487.27C2323.95 492.89 2333.96 500.9 2341.94 510.54L2350.12 508.7C2341.11 496.94 2329.38 487.21 2316.19 480.55C2302.35 473.56 2287.41 470 2271.79 470V477.53V477.54Z" fill="#AA342B"/>
<path d="M2387.45 408.93C2400.23 402.47 2414.03 399.2 2428.46 399.2V391.67C2412.84 391.67 2397.9 395.22 2384.05 402.22C2370.86 408.87 2359.12 418.61 2350.12 430.38L2358.29 432.22C2366.28 422.57 2376.29 414.56 2387.45 408.94V408.93Z" fill="#AA342B"/>
<path d="M2230.78 408.93C2243.56 402.47 2257.36 399.2 2271.79 399.2V391.67C2256.17 391.67 2241.23 395.22 2227.38 402.22C2214.19 408.87 2202.45 418.61 2193.45 430.38L2201.62 432.22C2209.61 422.57 2219.62 414.56 2230.78 408.94V408.93Z" fill="#AA342B"/>
<path d="M2428.47 320.87C2442.9 320.87 2456.7 324.14 2469.48 330.6C2480.63 336.22 2490.64 344.23 2498.62 353.87L2506.8 352.03C2497.79 340.27 2486.06 330.54 2472.87 323.88C2459.03 316.89 2444.09 313.33 2428.47 313.33V320.86V320.87Z" fill="#AA342B"/>
<path d="M2271.79 320.87C2286.22 320.87 2300.02 324.14 2312.8 330.6C2323.95 336.22 2333.96 344.23 2341.94 353.87L2350.12 352.03C2341.11 340.27 2329.38 330.54 2316.19 323.88C2302.35 316.89 2287.41 313.33 2271.79 313.33V320.86V320.87Z" fill="#AA342B"/>
<path d="M2387.45 252.26C2400.23 245.8 2414.03 242.53 2428.46 242.53V235C2412.84 235 2397.9 238.55 2384.05 245.55C2370.86 252.2 2359.12 261.94 2350.12 273.71L2358.29 275.55C2366.28 265.9 2376.29 257.89 2387.45 252.27V252.26Z" fill="#AA342B"/>
<path d="M2230.78 252.26C2243.56 245.8 2257.36 242.53 2271.79 242.53V235C2256.17 235 2241.23 238.55 2227.38 245.55C2214.19 252.2 2202.45 261.94 2193.45 273.71L2201.62 275.55C2209.61 265.9 2219.62 257.89 2230.78 252.27V252.26Z" fill="#AA342B"/>
<path d="M2428.47 790.89C2442.9 790.89 2456.7 794.16 2469.48 800.62C2480.63 806.24 2490.64 814.25 2498.62 823.89L2506.8 822.05C2497.79 810.29 2486.06 800.56 2472.87 793.9C2459.03 786.91 2444.09 783.35 2428.47 783.35V790.88V790.89Z" fill="#AA342B"/>
<path d="M2271.79 790.89C2286.22 790.89 2300.02 794.16 2312.8 800.62C2323.95 806.24 2333.96 814.25 2341.94 823.89L2350.12 822.05C2341.11 810.29 2329.38 800.56 2316.19 793.9C2302.35 786.91 2287.41 783.35 2271.79 783.35V790.88V790.89Z" fill="#AA342B"/>
<path d="M2387.45 722.28C2400.23 715.82 2414.03 712.55 2428.46 712.55V705.02C2412.84 705.02 2397.9 708.57 2384.05 715.57C2370.86 722.22 2359.12 731.96 2350.12 743.73L2358.29 745.57C2366.28 735.92 2376.29 727.91 2387.45 722.29V722.28Z" fill="#AA342B"/>
<path d="M2230.78 722.28C2243.56 715.82 2257.36 712.55 2271.79 712.55V705.02C2256.17 705.02 2241.23 708.57 2227.38 715.57C2214.19 722.22 2202.45 731.96 2193.45 743.73L2201.62 745.57C2209.61 735.92 2219.62 727.91 2230.78 722.29V722.28Z" fill="#AA342B"/>
<path d="M2428.47 634.22C2442.9 634.22 2456.7 637.49 2469.48 643.95C2480.63 649.57 2490.64 657.58 2498.62 667.22L2506.8 665.38C2497.79 653.62 2486.06 643.89 2472.87 637.23C2459.03 630.24 2444.09 626.68 2428.47 626.68V634.21V634.22Z" fill="#AA342B"/>
<path d="M2271.79 634.22C2286.22 634.22 2300.02 637.49 2312.8 643.95C2323.95 649.57 2333.96 657.58 2341.94 667.22L2350.12 665.38C2341.11 653.62 2329.38 643.89 2316.19 637.23C2302.35 630.24 2287.41 626.68 2271.79 626.68V634.21V634.22Z" fill="#AA342B"/>
<path d="M2387.45 565.61C2400.23 559.15 2414.03 555.88 2428.46 555.88V548.35C2412.84 548.35 2397.9 551.9 2384.05 558.9C2370.86 565.55 2359.12 575.29 2350.12 587.06L2358.29 588.9C2366.28 579.25 2376.29 571.24 2387.45 565.62V565.61Z" fill="#AA342B"/>
<path d="M2230.78 565.61C2243.56 559.15 2257.36 555.88 2271.79 555.88V548.35C2256.17 548.35 2241.23 551.9 2227.38 558.9C2214.19 565.55 2202.45 575.29 2193.45 587.06L2201.62 588.9C2209.61 579.25 2219.62 571.24 2230.78 565.62V565.61Z" fill="#AA342B"/>
<path d="M2387.45 1035.62C2400.23 1029.16 2414.03 1025.89 2428.46 1025.89V1018.36C2412.84 1018.36 2397.9 1021.91 2384.05 1028.91C2370.86 1035.56 2359.12 1045.3 2350.12 1057.07L2358.29 1058.91C2366.28 1049.26 2376.29 1041.25 2387.45 1035.63V1035.62Z" fill="#AA342B"/>
<path d="M2230.78 1035.62C2243.56 1029.16 2257.36 1025.89 2271.79 1025.89V1018.36C2256.17 1018.36 2241.23 1021.91 2227.38 1028.91C2214.19 1035.56 2202.45 1045.3 2193.45 1057.07L2201.62 1058.91C2209.61 1049.26 2219.62 1041.25 2230.78 1035.63V1035.62Z" fill="#AA342B"/>
<path d="M2428.47 947.56C2442.9 947.56 2456.7 950.83 2469.48 957.29C2480.63 962.91 2490.64 970.92 2498.62 980.56L2506.8 978.72C2497.79 966.96 2486.06 957.23 2472.87 950.57C2459.03 943.58 2444.09 940.02 2428.47 940.02V947.55V947.56Z" fill="#AA342B"/>
<path d="M2271.79 947.56C2286.22 947.56 2300.02 950.83 2312.8 957.29C2323.95 962.91 2333.96 970.92 2341.94 980.56L2350.12 978.72C2341.11 966.96 2329.38 957.23 2316.19 950.57C2302.35 943.58 2287.41 940.02 2271.79 940.02V947.55V947.56Z" fill="#AA342B"/>
<path d="M2387.45 878.95C2400.23 872.49 2414.03 869.22 2428.46 869.22V861.69C2412.84 861.69 2397.9 865.24 2384.05 872.24C2370.86 878.89 2359.12 888.63 2350.12 900.4L2358.29 902.24C2366.28 892.59 2376.29 884.58 2387.45 878.96V878.95Z" fill="#AA342B"/>
<path d="M2230.78 878.95C2243.56 872.49 2257.36 869.22 2271.79 869.22V861.69C2256.17 861.69 2241.23 865.24 2227.38 872.24C2214.19 878.89 2202.45 888.63 2193.45 900.4L2201.62 902.24C2209.61 892.59 2219.62 884.58 2230.78 878.96V878.95Z" fill="#AA342B"/>
</g>
<defs>
<clipPath id="clip0_57_236">
<rect width="1253.4" height="1058.9" fill="white"/>
</clipPath>
<clipPath id="clip1_57_236">
<rect width="1253.4" height="1058.9" fill="white" transform="translate(1253.4)"/>
</clipPath>
</defs>
</svg>
