<svg width="128" height="129" viewBox="0 0 128 129" fill="none" xmlns="http://www.w3.org/2000/svg">
<g clip-path="url(#clip0_20_1460)">
<path d="M59.51 48.9619C59.51 42.9319 54.62 38.0419 48.59 38.0419V25.4519H7.29C4.11 25.4519 1.53 28.0319 1.53 31.2119V72.4819H14.15C14.15 66.4419 19.03 61.5619 25.07 61.5619C31.11 61.5619 35.99 66.4419 35.99 72.4819H48.59V59.8819C54.62 59.8819 59.51 54.9919 59.51 48.9619Z" fill="#DD7E77" stroke="#882922" stroke-width="3" stroke-linecap="round" stroke-linejoin="round"/>
<path d="M108.3 63.4519C113.95 61.3319 116.8 55.0319 114.68 49.3919L126.47 44.9619L111.94 6.30194C110.82 3.32194 107.5 1.82194 104.53 2.94194L65.9 17.4619L70.34 29.2719C76 27.1419 82.28 29.9919 84.4 35.6519C86.52 41.3119 83.68 47.5919 78.02 49.7119L82.45 61.5119L94.24 57.0819C96.36 62.7219 102.66 65.5819 108.3 63.4619V63.4519Z" fill="#CC3E33" stroke="#882922" stroke-width="3" stroke-linecap="round" stroke-linejoin="round"/>
<path d="M37.65 96.0019C37.65 102.032 42.54 106.922 48.57 106.922V119.512H89.87C93.05 119.512 95.63 116.932 95.63 113.752V72.4819H83.01C83.01 78.5219 78.13 83.4019 72.09 83.4019C66.05 83.4019 61.17 78.5219 61.17 72.4819H48.57V85.0819C42.54 85.0819 37.65 89.9719 37.65 96.0019Z" fill="#DD7E77" stroke="#882922" stroke-width="3" stroke-linecap="round" stroke-linejoin="round"/>
<path d="M25.05 61.5319C19.02 61.5319 14.13 66.4219 14.13 72.4519H1.53999V113.752C1.53999 116.932 4.11999 119.512 7.29999 119.512H48.57V106.892C42.53 106.892 37.65 102.012 37.65 95.9719C37.65 89.9319 42.53 85.0519 48.57 85.0519V72.4519H35.97C35.97 66.4219 31.08 61.5319 25.05 61.5319Z" fill="#DD7E77" stroke="#882922" stroke-width="3" stroke-linecap="round" stroke-linejoin="round"/>
<path d="M102.41 127.402C115.703 127.402 126.48 116.625 126.48 103.332C126.48 90.0384 115.703 79.2619 102.41 79.2619C89.1165 79.2619 78.34 90.0384 78.34 103.332C78.34 116.625 89.1165 127.402 102.41 127.402Z" fill="#FFCB44" stroke="#882922" stroke-width="3" stroke-linecap="round" stroke-linejoin="round"/>
<path fill-rule="evenodd" clip-rule="evenodd" d="M94.75 103.592L99.68 108.522L110.06 98.1419" fill="#FFCB44"/>
<path d="M94.75 103.592L99.68 108.522L110.06 98.1419" stroke="#882922" stroke-width="3" stroke-linecap="round" stroke-linejoin="round"/>
</g>
<defs>
<clipPath id="clip0_20_1460">
<rect width="128" height="128" fill="white" transform="translate(0 0.961914)"/>
</clipPath>
</defs>
</svg>
