<svg width="51" height="31" viewBox="0 0 51 31" fill="none" xmlns="http://www.w3.org/2000/svg">
<path fill-rule="evenodd" clip-rule="evenodd" d="M11.4993 0C17.8508 0 23 5.25568 23 11.7402C23 20.9431 16.8072 26.1933 10.0618 30.8407C9.29522 31.368 8.34311 30.4865 8.7842 29.6559C9.84255 27.6582 10.5701 25.6029 10.7489 23.4556C4.74713 23.0602 0 17.9665 0 11.7402C0 5.25568 5.14922 0 11.4993 0Z" fill="#CC3E33"/>
<path fill-rule="evenodd" clip-rule="evenodd" d="M39.5008 0C45.8508 0 51 5.25568 51 11.7402C51 20.9431 44.8086 26.1933 38.0632 30.8407C37.2965 31.368 36.3445 30.4865 36.7843 29.6559C37.8426 27.6582 38.5715 25.6029 38.749 23.4556C32.7486 23.0602 28 17.9665 28 11.7402C28 5.25568 33.1493 0 39.5008 0Z" fill="#CC3E33"/>
</svg>
