<svg width="128" height="128" viewBox="0 0 128 128" fill="none" xmlns="http://www.w3.org/2000/svg">
<g clip-path="url(#clip0_215_4473)">
<path d="M108.18 17.13L99.8703 1.54999L92.9603 15.66C92.5003 16.85 91.4403 17.71 90.1903 17.93L72.8203 21.02L84.2303 32.08C85.1203 32.9 85.5503 34.1 85.4003 35.29L82.9603 52.77L97.1203 45.27C98.1403 44.74 99.3603 44.72 100.4 45.23L116.27 52.94L113.52 37.18V37.16L113.53 37.17C113.33 36.03 113.69 34.86 114.48 34.03L126.74 21.32L110.88 19.05C109.72 18.89 108.71 18.19 108.16 17.16V17.14L108.18 17.13Z" fill="#FFCB44" stroke="#882922" stroke-width="3" stroke-linecap="round" stroke-linejoin="round"/>
<path d="M61.9709 65.62L87.5609 65.32C93.9009 65.07 99.0809 71.6 97.3709 77.72L86.6409 120.87C85.9009 123.84 83.2509 125.94 80.1809 125.98C78.7909 125.81 41.0709 126.97 41.3809 125.84L24.2809 120.33L23.7109 71.48C27.9509 69.94 31.8209 68.09 35.2109 65.89C44.3209 59.91 49.8909 49.26 49.7509 38.07L49.5909 24.65C49.5909 24.18 49.8709 23.9 49.9909 23.8C50.1509 23.66 50.4209 23.52 50.7809 23.6C57.8609 25.07 66.3309 29.85 66.5409 44.25L66.3709 47.09C66.2409 49.19 65.9009 51.27 65.3409 53.3L61.9609 65.62H61.9709Z" fill="#FFEEC0" stroke="#882922" stroke-width="3" stroke-linecap="round" stroke-linejoin="round"/>
<path d="M28.851 125.582L28.7363 65.8625L17.0463 65.885L17.161 125.605L28.851 125.582Z" fill="#CC3E33" stroke="#882922" stroke-width="3" stroke-linecap="round" stroke-linejoin="round"/>
<path d="M1.63086 123.63L17.1509 123.84L17.0609 67.63L17.0409 67.64L1.63086 67.33V123.63Z" fill="#DD7E77" stroke="#882922" stroke-width="3" stroke-linecap="round" stroke-linejoin="round"/>
</g>
<defs>
<clipPath id="clip0_215_4473">
<rect width="128" height="128" fill="white"/>
</clipPath>
</defs>
</svg>
