<svg width="25" height="25" viewBox="0 0 25 25" fill="none" xmlns="http://www.w3.org/2000/svg">
<path d="M6.37752 24.8304H1.2775V8.78038H6.37752V24.8304ZM3.82751 6.53038C2.17751 6.53038 0.977509 5.33038 0.977509 3.68038C0.977509 2.03038 2.32751 0.830383 3.82751 0.830383C5.47751 0.830383 6.67751 2.03038 6.67751 3.68038C6.67751 5.33038 5.47751 6.53038 3.82751 6.53038ZM24.9775 24.8304H19.8775V16.1304C19.8775 13.5804 18.8275 12.8304 17.3275 12.8304C15.8275 12.8304 14.3275 14.0304 14.3275 16.2804V24.8304H9.22751V8.78038H14.0275V11.0304C14.4775 9.98038 16.2775 8.33038 18.8275 8.33038C21.6775 8.33038 24.6775 9.98038 24.6775 14.9304V24.8304H24.9775Z" fill="#2867B2"/>
</svg>
