<svg width="24" height="24" viewBox="0 0 24 24" fill="none" xmlns="http://www.w3.org/2000/svg">
<g clip-path="url(#clip0_221_10019)">
<path d="M12.7794 0.879336L15.812 7.10983C15.9397 7.37142 16.1838 7.55145 16.4668 7.59364L23.2479 8.59221C23.5753 8.64002 23.8499 8.87349 23.9526 9.19416C24.0553 9.51482 23.9692 9.86643 23.7334 10.0999L18.8252 14.9493C18.6199 15.1518 18.5255 15.4443 18.5755 15.7313L19.7353 22.5806C19.7907 22.9125 19.6576 23.2472 19.3884 23.4441C19.1221 23.641 18.7642 23.6663 18.4728 23.5116L12.4049 20.2768C12.1524 20.1418 11.8472 20.1418 11.5947 20.2768L5.5267 23.5116C5.2326 23.6663 4.87746 23.641 4.6111 23.4441C4.34196 23.2472 4.20879 22.9125 4.26428 22.5806L5.42405 15.7313C5.47399 15.4443 5.37965 15.1546 5.17433 14.9493L0.263352 10.0999C0.0247392 9.86362 -0.0584978 9.51201 0.0441612 9.19416C0.14682 8.87349 0.418728 8.64284 0.748901 8.59221L7.53272 7.59364C7.81572 7.55145 8.06266 7.37142 8.18751 7.10983L11.2173 0.879336C11.3644 0.57836 11.6668 0.387085 11.9998 0.387085C12.3327 0.387085 12.6351 0.57836 12.7822 0.879336H12.7794Z" fill="#FFCB44"/>
</g>
<defs>
<clipPath id="clip0_221_10019">
<rect width="24" height="23.2258" fill="white" transform="translate(0 0.387085)"/>
</clipPath>
</defs>
</svg>
